<?xml version="1.0" encoding="utf-8"?>
<!-- Generator: Adobe Illustrator 22.0.1, SVG Export Plug-In . SVG Version: 6.00 Build 0)  -->
<svg version="1.1" id="Layer_1" xmlns="http://www.w3.org/2000/svg" xmlns:xlink="http://www.w3.org/1999/xlink" x="0px" y="0px"
	 width="79.6px" height="80px" viewBox="0 0 79.6 80" enable-background="new 0 0 79.6 80" xml:space="preserve">
<title>Asset 35</title>
<g id="Layer_2_1_">
	<g id="Layer_1-2">
		<g>
			<path fill="#58C8FA" d="M66,19.1c0.1989-1.0551,0.2993-2.1263,0.3-3.2C66.291,7.1076,59.1561-0.0127,50.3637-0.0037
				C44.1381,0.0027,38.4874,3.6375,35.9,9.3c-1.9899-1.2135-4.2695-1.8698-6.6-1.9c-5.3831-0.0246-10.1774,3.3999-11.9,8.5
				c-0.4954-0.083-0.9979-0.1165-1.5-0.1C7.1187,15.8,0,22.9187,0,31.7s7.1187,15.9,15.9,15.9h50.2
				c0.1099,0.0132,0.22-0.0235,0.3-0.1c7.4567-0.4265,13.2655-6.6314,13.2-14.1C79.5391,25.7959,73.5915,19.5421,66,19.1z M66,45.7
				H15.8C8.1232,45.6992,1.9006,39.4753,1.9014,31.7986C1.9022,24.1229,8.1244,17.9008,15.8,17.9c0.6704,0.0219,1.3386,0.0887,2,0.2
				c0.4958,0.1113,0.9879-0.2004,1.0992-0.6962c0.0003-0.0013,0.0006-0.0025,0.0008-0.0038c1.3019-4.6114,5.5084-7.7968,10.3-7.8
				c2.3477,0.0101,4.6287,0.7821,6.5,2.2c0.2495,0.2092,0.5853,0.2839,0.9,0.2c0.3126-0.0827,0.5704-0.3037,0.7-0.6
				c2.5987-7.2294,10.5659-10.9834,17.7953-8.3847C60.6156,4.9997,64.2978,10.2339,64.3,16.1c-0.0035,1.3227-0.2057,2.6374-0.6,3.9
				c-0.0839,0.3147-0.0092,0.6505,0.2,0.9c0.1782,0.2642,0.4817,0.416,0.8,0.4h0.5c6.6693-0.1767,12.219,5.0865,12.3958,11.7557
				c0.003,0.1147,0.0044,0.2295,0.0042,0.3443C77.6513,39.9449,72.5367,45.3681,66,45.7z"/>
			<path fill="#58C8FA" d="M20.9,52.1l-9.3,13.2c-0.2999,0.4494-0.2137,1.0525,0.2,1.4c0.1824,0.1109,0.3875,0.1793,0.6,0.2
				c0.3183,0.016,0.6218-0.1358,0.8-0.4l9.3-13.2c0.2999-0.4494,0.2137-1.0525-0.2-1.4c-0.3596-0.3431-0.9293-0.3297-1.2724,0.0299
				C20.9785,51.9814,20.9356,52.0385,20.9,52.1z"/>
			<path fill="#58C8FA" d="M31.5,52.1L20.2,68.3c-0.2999,0.4494-0.2137,1.0525,0.2,1.4c0.1824,0.1109,0.3875,0.1793,0.6,0.2
				c0.3183,0.016,0.6218-0.1358,0.8-0.4l11.4-16.2c0.2999-0.4494,0.2137-1.0525-0.2-1.4c-0.4132-0.3665-1.0452-0.3287-1.4117,0.0845
				C31.5561,52.0208,31.5266,52.0594,31.5,52.1z"/>
			<path fill="#58C8FA" d="M42.2,52.1l-9.3,13.2c-0.2999,0.4494-0.2137,1.0525,0.2,1.4c0.1824,0.1109,0.3875,0.1793,0.6,0.2
				c0.3183,0.016,0.6218-0.1358,0.8-0.4l9.3-13.2c0.2999-0.4494,0.2137-1.0525-0.2-1.4c-0.3596-0.3431-0.9293-0.3297-1.2724,0.0299
				C42.2785,51.9814,42.2357,52.0385,42.2,52.1z"/>
			<path fill="#58C8FA" d="M52.8,52.1l-5.3,7.5c-0.2999,0.4494-0.2137,1.0525,0.2,1.4c0.1824,0.1109,0.3875,0.1793,0.6,0.2
				c0.3183,0.016,0.6218-0.1358,0.8-0.4l5.3-7.5c0.2999-0.4494,0.2137-1.0525-0.2-1.4c-0.3596-0.3431-0.9293-0.3297-1.2724,0.0299
				C52.8785,51.9814,52.8357,52.0385,52.8,52.1z"/>
			<path fill="#58C8FA" d="M50.3,72.5c0.1824,0.1109,0.3875,0.1793,0.6,0.2c0.3183,0.016,0.6218-0.1358,0.8-0.4l13.3-19
				c0.2999-0.4494,0.2137-1.0525-0.2-1.4c-0.4515-0.2906-1.0479-0.2054-1.4,0.2l-13.3,19C49.8138,71.5525,49.8986,72.1458,50.3,72.5
				z"/>
			<path fill="#58C8FA" d="M17.1,72.7l-3.3,4.8c-0.2999,0.4494-0.2137,1.0525,0.2,1.4c0.1824,0.1109,0.3875,0.1793,0.6,0.2
				c0.3183,0.016,0.6218-0.1358,0.8-0.4l3.3-4.8c0.2999-0.4494,0.2137-1.0525-0.2-1.4c-0.3596-0.3431-0.9293-0.3297-1.2724,0.0299
				C17.1785,72.5814,17.1357,72.6385,17.1,72.7z"/>
			<path fill="#58C8FA" d="M29.6,69.9l-6,8.5c-0.2999,0.4494-0.2137,1.0525,0.2,1.4c0.1824,0.1109,0.3875,0.1793,0.6,0.2
				c0.3183,0.016,0.6218-0.1358,0.8-0.4l6-8.5c0.2999-0.4494,0.2137-1.0525-0.2-1.4C30.5475,69.4138,29.9542,69.4986,29.6,69.9z"/>
			<path fill="#58C8FA" d="M38.7,74c0.1824,0.1109,0.3875,0.1793,0.6,0.2c0.3183,0.016,0.6218-0.1358,0.8-0.4l6-8.5
				c0.3306-0.4424,0.24-1.0691-0.2024-1.3996C45.4562,63.5706,44.8313,63.6599,44.5,64.1l-6,8.5
				c-0.3419,0.3684-0.3204,0.9442,0.048,1.286C38.5946,73.9292,38.6455,73.9674,38.7,74z"/>
		</g>
	</g>
</g>
</svg>
