<?xml version="1.0" encoding="utf-8"?>
<!-- Generator: Adobe Illustrator 22.0.1, SVG Export Plug-In . SVG Version: 6.00 Build 0)  -->
<svg version="1.1" id="Layer_1" xmlns="http://www.w3.org/2000/svg" xmlns:xlink="http://www.w3.org/1999/xlink" x="0px" y="0px"
	 width="78.11px" height="79.4px" viewBox="0 0 78.11 79.4" enable-background="new 0 0 78.11 79.4" xml:space="preserve">
<title>Asset 36</title>
<g id="Layer_2_1_">
	<g id="Layer_1-2">
		<g>
			<path fill="#58C8FA" d="M0.91,79.4h76.2c0.518,0.0343,0.9657-0.3579,1-0.8759c0.0027-0.0413,0.0027-0.0828,0-0.1241V46.5
				c0.0343-0.518-0.3579-0.9657-0.8759-1c-0.0413-0.0027-0.0828-0.0027-0.1241,0h-4c-0.518-0.0343-0.9657,0.3579-1,0.8759
				c-0.0027,0.0413-0.0027,0.0828,0,0.1241v1.8h-2.8v-1.8c0.0343-0.518-0.3579-0.9657-0.8759-1
				c-0.0413-0.0027-0.0828-0.0027-0.1241,0h-3.5c-0.518-0.0343-0.9657,0.3579-1,0.8759c-0.0027,0.0413-0.0027,0.0828,0,0.1241v1.8
				H61v-1.8c0.0343-0.518-0.3579-0.9657-0.8759-1c-0.0413-0.0027-0.0828-0.0027-0.1241,0h-3V31.1l1.7-9.6
				c0.0913-0.283,0.0137-0.5933-0.2-0.8c-0.207-0.229-0.4926-0.3718-0.8-0.4H53c-0.518-0.0343-0.9657,0.3579-1,0.8759
				c-0.0027,0.0413-0.0027,0.0828,0,0.1241v2.2h-3.6v-2.2c0.0343-0.518-0.3579-0.9657-0.8759-1
				c-0.0413-0.0027-0.0828-0.0027-0.1241,0h-5.2c-0.518-0.0343-0.9657,0.3579-1,0.8759c-0.0027,0.0413-0.0027,0.0828,0,0.1241v2.2
				h-0.7V11.3c0.8197-0.4744,1.7531-0.7164,2.7-0.7c-0.2006,0.4342-0.1218,0.9462,0.2,1.3c0.85,0.5769,1.8805,0.8257,2.9,0.7
				c2.5062-0.0349,4.9831-0.5438,7.3-1.5c3.9-1.7,5.7-0.2,5.8-0.2c0.3329,0.2974,0.8225,0.3382,1.2,0.1
				c0.3755-0.2738,0.5361-0.7556,0.4-1.2c-0.489-1.4058-1.3536-2.6508-2.5-3.6c0.5444-0.2146,1.117-0.3493,1.7-0.4
				c0.4097-0.0408,0.7597-0.3129,0.9-0.7c0.1393-0.3933,0.0197-0.8318-0.3-1.1c-0.2-0.1-4.3-3.4-10.5-0.8
				c-1.1288,0.5507-2.3489,0.8896-3.6,1V3.7c-0.0215-0.3603-0.2055-0.6914-0.5-0.9c-1.6828-1.0173-3.7186-1.2717-5.6-0.7V1
				c0-0.5523-0.4477-1-1-1s-1,0.4477-1,1v22.4h-0.9v-2.2c0.0343-0.518-0.3579-0.9657-0.8759-1
				c-0.0413-0.0027-0.0828-0.0027-0.1241,0h-5.4c-0.518-0.0343-0.9657,0.3579-1,0.8759c-0.0027,0.0413-0.0027,0.0828,0,0.1241v2.2
				h-3.7v-2.2c0.0343-0.518-0.3579-0.9657-0.8759-1c-0.0413-0.0027-0.0828-0.0027-0.1241,0h-5.2
				c-0.3183-0.016-0.6218,0.1358-0.8,0.4c-0.2137,0.2067-0.2913,0.517-0.2,0.8l1.7,9.6v14.4h-3
				c-0.518-0.0343-0.9657,0.3579-1,0.8759c-0.0027,0.0413-0.0027,0.0828,0,0.1241v1.8h-2.8v-1.8
				c0.0343-0.518-0.3579-0.9657-0.8759-1c-0.0413-0.0027-0.0828-0.0027-0.1241,0H9.81c-0.518-0.0343-0.9657,0.3579-1,0.8759
				c-0.0027,0.0413-0.0027,0.0828,0,0.1241v1.8H6v-1.8c0.0343-0.518-0.3579-0.9657-0.8759-1C5.0828,45.3973,5.0413,45.3973,5,45.4H1
				c-0.518-0.0343-0.9657,0.3579-1,0.8759c-0.0027,0.0413-0.0027,0.0828,0,0.1241v31.8c-0.1118,0.5409,0.236,1.0699,0.7769,1.1817
				C0.8208,79.3908,0.8653,79.3969,0.91,79.4z M50.91,5.2c1.947-0.8774,4.1376-1.054,6.2-0.5c-0.6314,0.2491-1.1841,0.6636-1.6,1.2
				c-0.2444,0.2717-0.3211,0.6552-0.2,1c0.1241,0.3849,0.497,0.6335,0.9,0.6c0.6083,0.0786,1.1721,0.3606,1.6,0.8
				c-1.716-0.1278-3.4363,0.1818-5,0.9c-2.015,0.8998-4.1933,1.3763-6.4,1.4c0.1975-0.1783,0.3071-0.434,0.3-0.7V6.3
				C48.1743,6.2496,49.609,5.8739,50.91,5.2z M44.61,4.5v4.2h-0.4c-0.1513-0.1011-0.3487-0.1011-0.5,0
				c-1.1202-0.0194-2.2358,0.1496-3.3,0.5V4.5C41.7306,3.8333,43.2894,3.8333,44.61,4.5z M23.11,32.2H55v45.1h-6.7
				c0-2.7-0.4-13.8-8.6-21c-0.3812-0.3005-0.9188-0.3005-1.3,0c-8.2,7.2-8.6,18.3-8.6,21h-6.7L23.11,32.2z M38,59.5v17.9h-6.2
				C31.81,75.1,32.21,66,38,59.5z M40,59.5c5.9,6.5,6.3,15.6,6.3,17.9H40V59.5z M59,47.5v1.8c-0.0343,0.518,0.3579,0.9657,0.8759,1
				c0.0413,0.0027,0.0828,0.0027,0.1241,0h4.8c0.518,0.0343,0.9657-0.3579,1-0.8759c0.0027-0.0413,0.0027-0.0828,0-0.1241v-1.8h1.5
				v1.8c-0.0343,0.518,0.3579,0.9657,0.8759,1c0.0413,0.0027,0.0828,0.0027,0.1241,0h4.8c0.518,0.0343,0.9657-0.3579,1-0.8759
				c0.0027-0.0413,0.0027-0.0828,0-0.1241v-1.8h2v29.8H57V47.5H59z M24.61,22.4v2.2c-0.0343,0.518,0.3579,0.9657,0.8759,1
				c0.0413,0.0027,0.0828,0.0027,0.1241,0h5.7c0.518,0.0343,0.9657-0.3579,1-0.8759c0.0027-0.0413,0.0027-0.0828,0-0.1241v-2.2h3.4
				v2.2c-0.0343,0.518,0.3579,0.9657,0.8759,1c0.0413,0.0027,0.0828,0.0027,0.1241,0h5.6c0.518,0.0343,0.9657-0.3579,1-0.8759
				c0.0027-0.0413,0.0027-0.0828,0-0.1241v-2.2h3.2v2.2c-0.0343,0.518,0.3579,0.9657,0.8759,1c0.0413,0.0027,0.0828,0.0027,0.1241,0
				h5.6c0.518,0.0343,0.9657-0.3579,1-0.8759c0.0027-0.0413,0.0027-0.0828,0-0.1241v-2.2h2.5l-1.4,7.9H23l-1.4-7.9H24.61z
				 M1.91,47.5h2v1.8c-0.0343,0.518,0.3579,0.9657,0.8759,1c0.0413,0.0027,0.0828,0.0027,0.1241,0h4.8
				c0.518,0.0343,0.9657-0.3579,1-0.8759c0.0027-0.0413,0.0027-0.0828,0-0.1241v-1.8h1.5v1.8c-0.0343,0.518,0.3579,0.9657,0.8759,1
				c0.0413,0.0027,0.0828,0.0027,0.1241,0H18c0.518,0.0343,0.9657-0.3579,1-0.8759c0.0027-0.0413,0.0027-0.0828,0-0.1241v-1.8h2
				v29.8H1.91V47.5z"/>
			<path fill="#58C8FA" d="M11.51,53.8c-1.9219-0.0166-3.4933,1.5279-3.5099,3.4498C7.9999,57.2666,7.9999,57.2833,8,57.3v4.4
				c-0.0343,0.518,0.3579,0.9657,0.8759,1c0.0413,0.0027,0.0828,0.0027,0.1241,0h5.1c0.518,0.0343,0.9657-0.3579,1-0.8759
				c0.0027-0.0413,0.0027-0.0828,0-0.1241v-4.4C14.9967,55.3768,13.4352,53.8545,11.51,53.8z M13,60.7H9.91v-3.4
				c-0.0167-0.8117,0.6277-1.4833,1.4394-1.5c0.0202-0.0004,0.0404-0.0004,0.0606,0c0.8196,0.021,1.479,0.6804,1.5,1.5v3.4H13z"/>
			<path fill="#58C8FA" d="M64,62.7h5.1c0.518,0.0343,0.9657-0.3579,1-0.8759c0.0027-0.0413,0.0027-0.0828,0-0.1241v-4.4
				c0.0111-1.9219-1.538-3.4889-3.4599-3.5c-0.0134-0.0001-0.0267-0.0001-0.0401,0c-1.924,0.0216-3.4784,1.576-3.5,3.5v4.4
				c-0.0443,0.5062,0.3302,0.9524,0.8364,0.9967C63.9575,62.6985,63.9788,62.6996,64,62.7z M65,57.3
				c-0.0167-0.8117,0.6277-1.4833,1.4394-1.5c0.0202-0.0004,0.0404-0.0004,0.0606,0c0.8196,0.021,1.479,0.6804,1.5,1.5v3.4h-3.1
				L65,57.3z"/>
		</g>
	</g>
</g>
</svg>
