<?xml version="1.0" encoding="utf-8"?>
<!-- Generator: Adobe Illustrator 22.0.1, SVG Export Plug-In . SVG Version: 6.00 Build 0)  -->
<svg version="1.1" id="Layer_1" xmlns="http://www.w3.org/2000/svg" xmlns:xlink="http://www.w3.org/1999/xlink" x="0px" y="0px"
	 width="80px" height="80.01px" viewBox="0 0 80 80.01" enable-background="new 0 0 80 80.01" xml:space="preserve">
<title>Asset 37</title>
<g id="Layer_2_1_">
	<g id="Layer_1-2">
		<g>
			<path fill="#58C8FA" d="M4.82,54.71c5.3,9.2,7.9,14.1,7.9,24.3c-0.0343,0.518,0.3579,0.9657,0.8759,1
				c0.0413,0.0027,0.0828,0.0027,0.1241,0h40.9c0.518,0.0343,0.9657-0.3579,1-0.8759c0.0027-0.0413,0.0027-0.0828,0-0.1241v-8.4h5
				c5.1067,0.078,9.3123-3.9934,9.4-9.1V58h5c2.7283,0.013,4.9505-2.1881,4.9635-4.9164c0.0031-0.6456-0.1204-1.2855-0.3635-1.8836
				l-1.3-3c-1.5616-3.5926-2.3519-7.4728-2.32-11.39c0.0208-10.0692-4.1881-19.6843-11.6-26.5
				c-7.855-7.293-18.3905-10.9884-29.08-10.2c-18.6,1.2-33.7,15.8-35.2,33.8C-0.4549,41.1593,1.184,48.4123,4.82,54.71z M2.12,34
				c1.4-17,15.7-30.8,33.3-31.9C45.5566,1.4128,55.5297,4.924,63,11.81c7.0327,6.4479,11.0255,15.5589,11,25.1
				c-0.0391,4.1541,0.785,8.271,2.42,12.09l1.3,3c0.3899,0.8425,0.3141,1.827-0.2,2.6c-0.5653,0.8221-1.5023,1.3093-2.5,1.3h-6.1
				c-0.518-0.0343-0.9657,0.3579-1,0.8759c-0.0027,0.0413-0.0027,0.0828,0,0.1241v4.5c-0.0875,4.002-3.3978,7.1782-7.4,7.1h-6
				c-0.518-0.0343-0.9657,0.3579-1,0.8759c-0.0027,0.0413-0.0027,0.0828,0,0.1241V78h-38.8c-0.2-10-2.8-15.1-8.1-24.3
				C3.1582,47.7412,1.5888,40.871,2.12,34z"/>
			<text transform="matrix(1 0 0 1 26.19 47.52)" fill="#58C8FA" font-family="'AvenirNext-Regular'" font-size="43px">?</text>
		</g>
	</g>
</g>
</svg>
