<?xml version="1.0" encoding="utf-8"?>
<!-- Generator: Adobe Illustrator 22.0.1, SVG Export Plug-In . SVG Version: 6.00 Build 0)  -->
<svg version="1.1" id="Layer_1" xmlns="http://www.w3.org/2000/svg" xmlns:xlink="http://www.w3.org/1999/xlink" x="0px" y="0px"
	 width="80px" height="80px" viewBox="0 0 80 80" enable-background="new 0 0 80 80" xml:space="preserve">
<title>Asset 41</title>
<g id="Layer_2_1_">
	<g id="Layer_1-2">
		<g>
			<path fill="#58C8FA" d="M11.2,22.3l-6.3,6.3c-0.3106,0.2777-0.393,0.7308-0.2,1.1c0.1566,0.359,0.5084,0.5935,0.9,0.6h23.8
				c0.518,0.0343,0.9657-0.3579,1-0.8759c0.0027-0.0413,0.0027-0.0828,0-0.1241V5.5c0.0335-0.403-0.2151-0.7759-0.6-0.9
				c-0.3692-0.193-0.8223-0.1106-1.1,0.2l-6.4,6.4L11.4,0.3c-0.3888-0.3811-1.0112-0.3811-1.4,0L0.3,10
				c-0.3811,0.3888-0.3811,1.0112,0,1.4L11.2,22.3z M10.6,2.4l10.9,10.9c0.3888,0.3811,1.0112,0.3811,1.4,0l5.4-5.4v20.4H8l5.3-5.3
				c0.3811-0.3888,0.3811-1.0112,0-1.4L2.4,10.7L10.6,2.4z"/>
			<path fill="#58C8FA" d="M0.3,70.1l9.6,9.6c0.3888,0.3811,1.0112,0.3811,1.4,0l10.9-10.9l6.3,6.3
				c0.2777,0.3106,0.7308,0.393,1.1,0.2c0.359-0.1566,0.5935-0.5084,0.6-0.9V50.7c0.0343-0.518-0.3579-0.9657-0.8759-1
				c-0.0413-0.0027-0.0828-0.0027-0.1241,0H5.5c-0.403-0.0335-0.7759,0.2151-0.9,0.6c-0.193,0.3692-0.1106,0.8223,0.2,1.1l6.4,6.4
				L0.3,68.6C-0.0987,69.0205-0.0987,69.6795,0.3,70.1z M13.3,58.5c0.3811-0.3888,0.3811-1.0112,0-1.4l-5.4-5.4h20.4V72L23,66.7
				c-0.3888-0.3811-1.0112-0.3811-1.4,0L10.7,77.6l-8.2-8.2L13.3,58.5z"/>
			<path fill="#58C8FA" d="M68.8,57.7l6.3-6.3c0.3106-0.2777,0.393-0.7308,0.2-1.1c-0.1566-0.359-0.5084-0.5935-0.9-0.6H50.7
				c-0.518-0.0343-0.9657,0.3579-1,0.8759c-0.0027,0.0413-0.0027,0.0828,0,0.1241v23.8c-0.0335,0.403,0.2151,0.7759,0.6,0.9
				c0.3692,0.193,0.8223,0.1106,1.1-0.2l6.4-6.4l10.9,10.9c0.3888,0.3811,1.0112,0.3811,1.4,0l9.6-9.6
				c0.3811-0.3888,0.3811-1.0112,0-1.4L68.8,57.7z M69.4,77.6L58.5,66.7c-0.3888-0.3811-1.0112-0.3811-1.4,0l-5.4,5.4V51.7H72
				L66.7,57c-0.3811,0.3888-0.3811,1.0112,0,1.4l10.9,10.9L69.4,77.6z"/>
			<path fill="#58C8FA" d="M79.7,9.9L70,0.3c-0.3888-0.3811-1.0112-0.3811-1.4,0L57.7,11.2l-6.3-6.3
				c-0.2777-0.3106-0.7308-0.393-1.1-0.2c-0.359,0.1566-0.5935,0.5084-0.6,0.9v23.8c-0.0343,0.518,0.3579,0.9657,0.8759,1
				c0.0413,0.0027,0.0828,0.0027,0.1241,0h23.8c0.403,0.0335,0.7759-0.2151,0.9-0.6c0.193-0.3692,0.1106-0.8223-0.2-1.1l-6.4-6.4
				l10.9-10.9C80.0987,10.9795,80.0987,10.3205,79.7,9.9z M66.7,21.5c-0.3811,0.3888-0.3811,1.0112,0,1.4l5.4,5.4H51.7V8l5.3,5.3
				c0.3888,0.3811,1.0112,0.3811,1.4,0L69.3,2.4l8.2,8.2L66.7,21.5z"/>
		</g>
	</g>
</g>
</svg>
