<?xml version="1.0" encoding="utf-8"?>
<!-- Generator: Adobe Illustrator 22.0.1, SVG Export Plug-In . SVG Version: 6.00 Build 0)  -->
<svg version="1.1" id="Layer_1" xmlns="http://www.w3.org/2000/svg" xmlns:xlink="http://www.w3.org/1999/xlink" x="0px" y="0px"
	 width="80.1px" height="80px" viewBox="0 0 80.1 80" enable-background="new 0 0 80.1 80" xml:space="preserve">
<title>Asset 40</title>
<g id="Layer_2_1_">
	<g id="Layer_1-2">
		<g>
			<path fill="#58C8FA" d="M40.1,17.7c-12.316,0-22.3,9.9841-22.3,22.3s9.984,22.3,22.3,22.3S62.4,52.316,62.4,40
				C62.389,27.6886,52.4114,17.711,40.1,17.7z M40.1,60.3c-11.2114,0-20.3-9.0886-20.3-20.3s9.0886-20.3,20.3-20.3
				S60.4,28.7886,60.4,40C60.3945,51.2091,51.3091,60.2945,40.1,60.3z"/>
			<path fill="#58C8FA" d="M41,10.6V1c0-0.5523-0.4477-1-1-1s-1,0.4477-1,1v9.6c-0.0343,0.518,0.3579,0.9657,0.8759,1
				c0.0413,0.0027,0.0828,0.0027,0.1241,0C40.5523,11.6,41,11.1523,41,10.6z"/>
			<path fill="#58C8FA" d="M25.3,15.5c0.1728,0.0156,0.3465-0.0192,0.5-0.1c0.4635-0.3018,0.6341-0.8989,0.4-1.4l-4.8-8.3
				c-0.3018-0.4635-0.8989-0.6341-1.4-0.4c-0.4635,0.3018-0.6341,0.8989-0.4,1.4l4.8,8.3C24.5586,15.3454,24.923,15.5478,25.3,15.5z
				"/>
			<path fill="#58C8FA" d="M15.4,25.8c0.2826-0.4745,0.127-1.0883-0.3475-1.3708C15.0353,24.4189,15.0178,24.4092,15,24.4l-8.3-4.8
				C6.2029,19.3239,5.5761,19.503,5.3,20c-0.2761,0.4971-0.0971,1.1239,0.4,1.4l8.3,4.8c0.1535,0.0808,0.3272,0.1156,0.5,0.1
				C14.877,26.3478,15.2414,26.1454,15.4,25.8z"/>
			<path fill="#58C8FA" d="M11.6,40.1c0.0343-0.518-0.3579-0.9657-0.8759-1c-0.0413-0.0027-0.0828-0.0027-0.1241,0H1
				c-0.5523,0-1,0.4477-1,1s0.4477,1,1,1h9.6C11.1523,41.1,11.6,40.6523,11.6,40.1z"/>
			<path fill="#58C8FA" d="M5.4,60.1c0.1921,0.3124,0.5333,0.5019,0.9,0.5c0.1728,0.0156,0.3465-0.0192,0.5-0.1l8.3-4.8
				c0.4971-0.2761,0.6761-0.9029,0.4-1.4c-0.2761-0.4971-0.9029-0.6761-1.4-0.4l0,0l-8.3,4.8
				C5.3365,59.0018,5.1659,59.5989,5.4,60.1z"/>
			<path fill="#58C8FA" d="M24.5,65l-4.8,8.3c-0.2826,0.4745-0.127,1.0883,0.3475,1.3708c0.0172,0.0102,0.0347,0.02,0.0525,0.0292
				c0.1535,0.0808,0.3272,0.1156,0.5,0.1c0.3603-0.0215,0.6914-0.2055,0.9-0.5l4.8-8.3c0.2826-0.4745,0.127-1.0883-0.3475-1.3708
				c-0.0172-0.0102-0.0347-0.02-0.0525-0.0292C25.3989,64.3659,24.8018,64.5365,24.5,65z"/>
			<path fill="#58C8FA" d="M39.1,69.4V79c0,0.5523,0.4477,1,1,1s1-0.4477,1-1v-9.6c0.0343-0.518-0.3579-0.9657-0.8759-1
				c-0.0413-0.0027-0.0828-0.0027-0.1241,0C39.5477,68.4,39.1,68.8477,39.1,69.4z"/>
			<path fill="#58C8FA" d="M54.3,64.6c-0.4635,0.3018-0.6341,0.8989-0.4,1.4l4.8,8.3c0.1921,0.3124,0.5333,0.5019,0.9,0.5
				c0.1728,0.0156,0.3465-0.0192,0.5-0.1c0.4635-0.3018,0.6341-0.8989,0.4-1.4L55.7,65c-0.2536-0.4906-0.8569-0.6828-1.3475-0.4292
				C54.3347,64.58,54.3172,64.5898,54.3,64.6z"/>
			<path fill="#58C8FA" d="M64.7,54.2c-0.2826,0.4745-0.127,1.0883,0.3475,1.3708c0.0172,0.0102,0.0347,0.02,0.0525,0.0292l8.3,4.8
				c0.1535,0.0808,0.3272,0.1156,0.5,0.1c0.3603-0.0215,0.6914-0.2055,0.9-0.5c0.2826-0.4745,0.127-1.0883-0.3475-1.3708
				c-0.0172-0.0102-0.0347-0.02-0.0525-0.0292l-8.3-4.8c-0.4745-0.2826-1.0883-0.127-1.3708,0.3475
				C64.7189,54.1647,64.7092,54.1822,64.7,54.2z"/>
			<path fill="#58C8FA" d="M79.1,38.9h-9.6c-0.5523,0-1,0.4477-1,1s0.4477,1,1,1h9.6c0.518,0.0343,0.9657-0.3579,1-0.8759
				c0.0027-0.0413,0.0027-0.0828,0-0.1241C80.1,39.3477,79.6523,38.9,79.1,38.9z"/>
			<path fill="#58C8FA" d="M74.7,19.9c-0.3018-0.4635-0.8989-0.6341-1.4-0.4L65,24.4c-0.4635,0.3018-0.6341,0.8989-0.4,1.4
				c0.1921,0.3124,0.5333,0.5019,0.9,0.5c0.1728,0.0156,0.3465-0.0192,0.5-0.1l8.3-4.8C74.759,21.0492,74.9233,20.4328,74.7,19.9z"
				/>
			<path fill="#58C8FA" d="M54.7,15.5c0.3603-0.0215,0.6914-0.2055,0.9-0.5l4.8-8.3c0.2761-0.4971,0.0971-1.1239-0.4-1.4
				c-0.4971-0.2761-1.1239-0.0971-1.4,0.4L53.8,14c-0.2826,0.4745-0.127,1.0883,0.3475,1.3708
				c0.0172,0.0102,0.0347,0.02,0.0525,0.0292C54.4,15.4,54.5,15.5,54.7,15.5z"/>
		</g>
	</g>
</g>
</svg>
