<svg xmlns="http://www.w3.org/2000/svg" viewBox="0 0 80.04 80">
  <defs>
    <style>
      .cls-1 {
        fill: #58c8fa;
      }
    </style>
  </defs>
  <title>Asset 38</title>
  <g id="Layer_2" data-name="Layer 2">
    <g id="Layer_1-2" data-name="Layer 1">
      <path class="cls-1" d="M64.32,80h7.6a3.59,3.59,0,0,0,3.6-3.6V44.7a9.54,9.54,0,0,0-3.9-17.6h-.2A28.1,28.1,0,0,0,43.42,0h-6.8a28.1,28.1,0,0,0-28,27.1h-.2A9.66,9.66,0,0,0,.12,35a9.53,9.53,0,0,0,4.4,9.7V76.4A3.59,3.59,0,0,0,8.12,80h7.6a3.59,3.59,0,0,0,3.6-3.6V75.2h41.6v1.2A3.31,3.31,0,0,0,64.32,80ZM19.12,44.9c22.1-7.7,39.3-1,41.6,0V61.5H19.12Zm58.7-9.6a7.66,7.66,0,0,1-3.9,8,1.05,1.05,0,0,0-.5.9V76.5a1.58,1.58,0,0,1-1.6,1.6h-7.6a1.58,1.58,0,0,1-1.6-1.6V36.6a7.72,7.72,0,0,1,2.5-5.7,7.28,7.28,0,0,1,5-1.9h0a2.77,2.77,0,0,1,.9.1A7.36,7.36,0,0,1,77.82,35.3ZM36.52,2h6.8a26.1,26.1,0,0,1,26,25.1A8.93,8.93,0,0,0,64,29.5a9.68,9.68,0,0,0-3.2,7.2v6.1c-4.4-1.7-20.6-7-41.6.1V36.7A10,10,0,0,0,16,29.5a10.69,10.69,0,0,0-5.3-2.4A25.79,25.79,0,0,1,36.52,2ZM17.12,76.4a1.58,1.58,0,0,1-1.6,1.6H7.92a1.58,1.58,0,0,1-1.6-1.6V44.1a1.05,1.05,0,0,0-.5-.9,7.66,7.66,0,0,1-3.9-8,7.54,7.54,0,0,1,6.6-6.3,7.42,7.42,0,0,1,6,1.9A7.56,7.56,0,0,1,17,36.5V76.4Zm2-3.1V63.5h41.6v9.8Z"/>
    </g>
  </g>
</svg>
