<svg xmlns="http://www.w3.org/2000/svg" viewBox="0 0 79.91 80">
  <defs>
    <style>
      .cls-1 {
        fill: #58c8fa;
      }
    </style>
  </defs>
  <title>Asset 45</title>
  <g id="Layer_2" data-name="Layer 2">
    <g id="Layer_1-2" data-name="Layer 1">
      <path class="cls-1" d="M.91,57.4h1.3V79a.94.94,0,0,0,1,1h73.5a.94.94,0,0,0,1-1V57.4h1.2a.94.94,0,0,0,1-1V50a.94.94,0,0,0-1-1h-3.6V29.1a5.89,5.89,0,0,0,4.6-5.7v-.1L77,.9A1.06,1.06,0,0,0,76,0H4.21a1.06,1.06,0,0,0-1,.9L.11,23.3v.1a5.89,5.89,0,0,0,4.6,5.7V49H1a.94.94,0,0,0-1,1v6.4A.87.87,0,0,0,.91,57.4ZM75.71,78H4.21V57.4h71.5ZM74,27.2a3.8,3.8,0,0,1-3.8-3.4h7.6A3.73,3.73,0,0,1,74,27.2Zm-13.5-5.3V2h7.7V21.9Zm-2,0h-7.7V2h7.7Zm-9.8,0H41V2h7.7Zm-9.7,0h-7.7V2H39Zm-9.7,0h-7.7V2h7.7Zm-9.8,0h-7.8V2h7.8Zm0,2a3.82,3.82,0,0,1-7.6,0Zm9.7,0a3.82,3.82,0,0,1-7.6,0Zm9.7,0a3.82,3.82,0,0,1-7.6,0Zm9.8,0a3.82,3.82,0,0,1-7.6,0Zm9.7,0a3.82,3.82,0,0,1-7.6,0Zm9.7,0a3.82,3.82,0,0,1-7.6,0Zm9.6-2h-7.5V2h5ZM5,2h4.7V21.9H2.21ZM2.11,23.9h7.6a3.82,3.82,0,0,1-7.6,0Zm4.5,5.3a6.35,6.35,0,0,0,4.2-2.5,5.92,5.92,0,0,0,9.8,0,5.8,5.8,0,0,0,4.9,2.6,5.93,5.93,0,0,0,4.9-2.6,5.92,5.92,0,0,0,9.8,0,5.92,5.92,0,0,0,9.8,0,5.92,5.92,0,0,0,9.8,0,5.92,5.92,0,0,0,9.8,0,5.62,5.62,0,0,0,4.2,2.5V49h-3.5a6.79,6.79,0,0,0-5.6-6A6.71,6.71,0,0,0,58,37.2a6.94,6.94,0,0,0-5.8,3.2,6.77,6.77,0,0,0-11.5,0A6.77,6.77,0,0,0,35,37.2a6.94,6.94,0,0,0-5.8,3.2A6.8,6.8,0,0,0,16.71,43a6.64,6.64,0,0,0-6.1,6.1H7.11l-.5-19.9Zm50.7,16.9a7,7,0,0,0-4.4-3.1,4.74,4.74,0,0,1,4.7-3.9,4.82,4.82,0,0,1,4.7,3.8A7.16,7.16,0,0,0,57.31,46.1Zm-11.5,0a7,7,0,0,0-4.4-3.1,4.74,4.74,0,0,1,4.7-3.9,4.82,4.82,0,0,1,4.7,3.8A6.77,6.77,0,0,0,45.81,46.1Zm-11.6,0a7.08,7.08,0,0,0-4.4-3.1,4.74,4.74,0,0,1,4.7-3.9,4.82,4.82,0,0,1,4.7,3.8A7.16,7.16,0,0,0,34.21,46.1Zm-11.5,0a7.08,7.08,0,0,0-4.4-3.1A4.74,4.74,0,0,1,23,39.1a4.82,4.82,0,0,1,4.7,3.8A7,7,0,0,0,22.71,46.1Zm-5.8-1.2a4.75,4.75,0,0,1,4.7,4.2h-9.4A4.75,4.75,0,0,1,16.91,44.9Zm11.6,0a4.75,4.75,0,0,1,4.7,4.2h-9.4A4.61,4.61,0,0,1,28.51,44.9Zm11.5,0a4.75,4.75,0,0,1,4.7,4.2h-9.4A4.75,4.75,0,0,1,40,44.9Zm11.5,0a4.75,4.75,0,0,1,4.7,4.2h-9.4A4.75,4.75,0,0,1,51.51,44.9Zm11.6,0a4.75,4.75,0,0,1,4.7,4.2h-9.4A4.75,4.75,0,0,1,63.11,44.9ZM1.91,51h76v4.4h-76Z"/>
    </g>
  </g>
</svg>
