<?xml version="1.0" encoding="utf-8"?>
<!-- Generator: Adobe Illustrator 22.0.1, SVG Export Plug-In . SVG Version: 6.00 Build 0)  -->
<svg version="1.1" id="Layer_1" xmlns="http://www.w3.org/2000/svg" xmlns:xlink="http://www.w3.org/1999/xlink" x="0px" y="0px"
	 width="80px" height="80.25px" viewBox="0 0 80 80.25" enable-background="new 0 0 80 80.25" xml:space="preserve">
<title>Asset 44</title>
<g id="Layer_2_1_">
	<g id="Layer_1-2">
		<g>
			<path fill="#58C8FA" d="M39.9,70.25c-0.518-0.0343-0.9657,0.3579-1,0.8759c-0.0027,0.0413-0.0027,0.0828,0,0.1241v7.9
				c0,0.5523,0.4477,1,1,1s1-0.4477,1-1v-7.9C40.8616,70.7144,40.4356,70.2884,39.9,70.25z"/>
			<path fill="#58C8FA" d="M39.9,57c-0.518-0.0343-0.9657,0.3579-1,0.8759c-0.0027,0.0413-0.0027,0.0828,0,0.1241v5.9
				c0,0.5523,0.4477,1,1,1s1-0.4477,1-1V58C40.9,57.4477,40.4523,57,39.9,57z"/>
			<path fill="#58C8FA" d="M39.9,45.25c-0.518-0.0343-0.9657,0.3579-1,0.8759c-0.0027,0.0413-0.0027,0.0828,0,0.1241v3.9
				c0,0.5523,0.4477,1,1,1s1-0.4477,1-1v-3.9C40.9,45.6977,40.4523,45.25,39.9,45.25z"/>
			<path fill="#58C8FA" d="M46.2,37c0,0.1,0,0.1,0.1,0.2l23.2,42.5c0.1921,0.3124,0.5333,0.5019,0.9,0.5
				c0.1728,0.0156,0.3465-0.0192,0.5-0.1c0.4906-0.2536,0.6828-0.8569,0.4292-1.3475C71.32,78.7347,71.3102,78.7172,71.3,78.7
				L48.4,37h2.4c0,0.1,0,0.2,0.1,0.2l27.2,42.5c0.1664,0.2899,0.4665,0.4775,0.8,0.5c0.1855-0.0034,0.3633-0.0745,0.5-0.2
				c0.4674-0.2942,0.6078-0.9116,0.3136-1.379C79.7092,78.614,79.7046,78.607,79.7,78.6L53.1,37H79c0.5523,0,1-0.4477,1-1
				s-0.4477-1-1-1h-8.8L53.1,5.45c-0.2909-0.4694-0.9073-0.6142-1.3768-0.3232C51.592,5.2081,51.4813,5.3188,51.4,5.45l-8.5,14.7
				L31.5,0.45c-0.2909-0.4694-0.9073-0.6142-1.3768-0.3232C29.992,0.2081,29.8813,0.3188,29.8,0.45L9.8,35H1c-0.5523,0-1,0.4477-1,1
				s0.4477,1,1,1h25.8L0.2,78.65c-0.3058,0.4599-0.1809,1.0806,0.279,1.3864C0.4859,80.041,0.4929,80.0456,0.5,80.05
				c0.1549,0.093,0.3237,0.1605,0.5,0.2c0.3403,0,0.6509-0.1941,0.8-0.5L29,37.25c0.0106-0.0758,0.0457-0.1461,0.1-0.2h2.4
				L8.8,78.65c-0.2826,0.4745-0.127,1.0883,0.3475,1.3708c0.0172,0.0102,0.0347,0.02,0.0525,0.0292
				c0.1535,0.0808,0.3272,0.1156,0.5,0.1c0.3667,0.0019,0.7079-0.1876,0.9-0.5l23.2-42.5c0-0.1,0-0.1,0.1-0.2H39v2.4
				c0,0.5523,0.4477,1,1,1s1-0.4477,1-1V37H46.2z M44,22.15L52.2,8l15.6,27H51.4L44,22.15z M30.6,3l18.5,32h-37L30.6,3z"/>
		</g>
	</g>
</g>
</svg>
