<?xml version="1.0" encoding="utf-8"?>
<!-- Generator: Adobe Illustrator 22.0.1, SVG Export Plug-In . SVG Version: 6.00 Build 0)  -->
<svg version="1.1" id="Layer_1" xmlns="http://www.w3.org/2000/svg" xmlns:xlink="http://www.w3.org/1999/xlink" x="0px" y="0px"
	 width="80px" height="79.9px" viewBox="0 0 80 79.9" enable-background="new 0 0 80 79.9" xml:space="preserve">
<title>Asset 43</title>
<g id="Layer_2_1_">
	<g id="Layer_1-2">
		<g>
			<path fill="#58C8FA" d="M79,77.9H66.4V1c0.0343-0.518-0.3579-0.9657-0.8759-1C65.4828-0.0027,65.4413-0.0027,65.4,0h-51
				c-0.518-0.0343-0.9657,0.3579-1,0.8759C13.3973,0.9172,13.3973,0.9587,13.4,1v76.9H1c-0.5523,0-1,0.4477-1,1s0.4477,1,1,1h78
				c0.5523,0,1-0.4477,1-1S79.5523,77.9,79,77.9z M15.4,2h49v75.9h-3.6v-71c0.0343-0.518-0.3579-0.9657-0.8759-1
				c-0.0413-0.0027-0.0828-0.0027-0.1241,0H20c-0.518-0.0343-0.9657,0.3579-1,0.8759C18.9973,6.8172,18.9973,6.8587,19,6.9v71h-3.6
				V2z M58.8,77.9H21v-70h37.8V77.9z"/>
			<path fill="#58C8FA" d="M24.4,49.7c0.518,0.0343,0.9657-0.3579,1-0.8759c0.0027-0.0413,0.0027-0.0828,0-0.1241v-6.5
				c0-0.5523-0.4477-1-1-1s-1,0.4477-1,1v6.5C23.4,49.2523,23.8477,49.7,24.4,49.7z"/>
		</g>
	</g>
</g>
</svg>
