<?xml version="1.0" encoding="utf-8"?>
<!-- Generator: Adobe Illustrator 22.0.1, SVG Export Plug-In . SVG Version: 6.00 Build 0)  -->
<svg version="1.1" id="Layer_1" xmlns="http://www.w3.org/2000/svg" xmlns:xlink="http://www.w3.org/1999/xlink" x="0px" y="0px"
	 width="80px" height="80.03px" viewBox="0 0 80 80.03" enable-background="new 0 0 80 80.03" xml:space="preserve">
<title>Asset 42</title>
<g id="Layer_2_1_">
	<g id="Layer_1-2">
		<g>
			<path fill="#58C8FA" d="M7.5,30.62h8.3c0.518,0.0343,0.9657-0.3579,1-0.8759c0.0027-0.0413,0.0027-0.0828,0-0.1241v-8.3
				c0.0343-0.518-0.3579-0.9657-0.8759-1c-0.0413-0.0027-0.0828-0.0027-0.1241,0H7.5c-0.518-0.0343-0.9657,0.3579-1,0.8759
				c-0.0027,0.0413-0.0027,0.0828,0,0.1241v8.3C6.5,30.1723,6.9477,30.62,7.5,30.62C7.5,30.62,7.5,30.62,7.5,30.62z M8.5,22.32h6.3
				v6.3H8.5V22.32z"/>
			<path fill="#58C8FA" d="M21.9,30.62h8.3c0.518,0.0343,0.9657-0.3579,1-0.8759c0.0027-0.0413,0.0027-0.0828,0-0.1241v-8.3
				c0.0343-0.518-0.3579-0.9657-0.8759-1c-0.0413-0.0027-0.0828-0.0027-0.1241,0h-8.3c-0.518-0.0343-0.9657,0.3579-1,0.8759
				c-0.0027,0.0413-0.0027,0.0828,0,0.1241v8.3c-0.0343,0.518,0.3579,0.9657,0.8759,1C21.8172,30.6228,21.8587,30.6228,21.9,30.62z
				 M22.9,22.32h6.3v6.3h-6.3V22.32z"/>
			<path fill="#58C8FA" d="M7.5,44.32h8.3c0.518,0.0343,0.9657-0.3579,1-0.8759c0.0027-0.0413,0.0027-0.0828,0-0.1241V35
				c0.0343-0.518-0.3579-0.9657-0.8759-1c-0.0413-0.0027-0.0828-0.0027-0.1241,0H7.5c-0.518-0.0343-0.9657,0.3579-1,0.8759
				C6.4973,34.9172,6.4973,34.9587,6.5,35v8.29C6.5239,43.8373,6.9537,44.28,7.5,44.32z M8.5,36h6.3v6.29H8.5V36z"/>
			<path fill="#58C8FA" d="M21.9,44.32h8.3c0.518,0.0343,0.9657-0.3579,1-0.8759c0.0027-0.0413,0.0027-0.0828,0-0.1241V35
				c0.0343-0.518-0.3579-0.9657-0.8759-1c-0.0413-0.0027-0.0828-0.0027-0.1241,0h-8.3c-0.518-0.0343-0.9657,0.3579-1,0.8759
				c-0.0027,0.0413-0.0027,0.0828,0,0.1241v8.29c-0.0166,0.552,0.4175,1.013,0.9696,1.0295
				C21.8797,44.3199,21.8898,44.32,21.9,44.32z M22.9,36.03h6.3v6.29h-6.3V36.03z"/>
			<path fill="#58C8FA" d="M15.8,58c0.5523,0,1-0.4477,1-1v-8.3c0.0343-0.518-0.3579-0.9657-0.8759-1
				c-0.0413-0.0027-0.0828-0.0027-0.1241,0H7.5c-0.518-0.0343-0.9657,0.3579-1,0.8759c-0.0027,0.0413-0.0027,0.0828,0,0.1241V57
				c0,0.5523,0.4477,1,1,1H15.8z M8.5,49.7h6.3V56H8.5V49.7z"/>
			<path fill="#58C8FA" d="M21.9,58h8.3c0.5523,0,1-0.4477,1-1v-8.3c0.0343-0.518-0.3579-0.9657-0.8759-1
				c-0.0413-0.0027-0.0828-0.0027-0.1241,0h-8.3c-0.518-0.0343-0.9657,0.3579-1,0.8759c-0.0027,0.0413-0.0027,0.0828,0,0.1241V57
				C20.9,57.5523,21.3477,58,21.9,58z M22.9,49.7h6.3V56h-6.3V49.7z"/>
			<path fill="#58C8FA" d="M1,80h35.6c0.5523,0,1-0.4477,1-1V16.73c0.0075-0.2955-0.1001-0.5823-0.3-0.8L19.5,0.23
				c-0.3742-0.3201-0.9258-0.3201-1.3,0L0.3,15.92c-0.199,0.2182-0.3064,0.5047-0.3,0.8V79C0,79.5523,0.4477,80,1,80z M22,78h-6.3
				V63.33H22V78z M2,17.13l16.8-14.8l16.8,14.8V78H24V62.33c0.0343-0.518-0.3579-0.9657-0.8759-1
				c-0.0413-0.0027-0.0828-0.0027-0.1241,0h-8.3c-0.518-0.0343-0.9657,0.3579-1,0.8759c-0.0027,0.0413-0.0027,0.0828,0,0.1241V78H2
				V17.13z"/>
			<path fill="#58C8FA" d="M61.8,0.23c-0.3742-0.3201-0.9258-0.3201-1.3,0L42.7,15.92c-0.199,0.2182-0.3064,0.5047-0.3,0.8V79
				c0,0.5523,0.4477,1,1,1H79c0.5523,0,1-0.4477,1-1V16.73c0.0075-0.2955-0.1001-0.5823-0.3-0.8L61.8,0.23z M64.3,78H58V66.53
				c0.0017-1.7121,1.3909-3.0986,3.103-3.097c1.7097,0.0017,3.0953,1.3873,3.097,3.097V78H64.3z M78,78H66.3V66.53
				c0-2.8167-2.2833-5.1-5.1-5.1c-2.8167,0-5.1,2.2833-5.1,5.1l0,0V78H44.4V17.13l16.8-14.8L78,17.13V78z"/>
			<path fill="#58C8FA" d="M54,20.32c-2.8121,0.011-5.089,2.2879-5.1,5.1v4.1c-0.0343,0.518,0.3579,0.9657,0.8759,1
				c0.0413,0.0027,0.0828,0.0027,0.1241,0h8.3c0.518,0.0343,0.9657-0.3579,1-0.8759c0.0027-0.0413,0.0027-0.0828,0-0.1241v-4.1
				C59.1043,22.6052,56.8161,20.3611,54,20.32z M57.1,28.62h-6.3v-3.09c0-1.7121,1.3879-3.1,3.1-3.1c1.7121,0,3.1,1.3879,3.1,3.1
				l0,0v3.09L57.1,28.62z"/>
			<path fill="#58C8FA" d="M64.2,30.62h8.3c0.518,0.0343,0.9657-0.3579,1-0.8759c0.0027-0.0413,0.0027-0.0828,0-0.1241v-4.09
				c0-2.8167-2.2833-5.1-5.1-5.1c-2.8167,0-5.1,2.2833-5.1,5.1l0,0v4.09c-0.0723,0.475,0.2542,0.9187,0.7292,0.991
				C64.0857,30.6196,64.1429,30.6226,64.2,30.62z M65.2,25.53c0.0017-1.7121,1.3909-3.0986,3.103-3.097
				c1.7097,0.0017,3.0953,1.3873,3.097,3.097v3.09h-6.3v-3.09H65.2z"/>
			<path fill="#58C8FA" d="M54,34c-2.8105,0.0055-5.089,2.2795-5.1,5.09v4.1c-0.0343,0.518,0.3579,0.9657,0.8759,1
				c0.0413,0.0027,0.0828,0.0027,0.1241,0h8.3c0.518,0.0343,0.9657-0.3579,1-0.8759c0.0027-0.0413,0.0027-0.0828,0-0.1241v-4.1
				C59.1041,36.2769,56.8145,34.0358,54,34z M57.1,42.29h-6.3v-3.06c0-1.7121,1.3879-3.1,3.1-3.1c1.7121,0,3.1,1.3879,3.1,3.1v3.09
				L57.1,42.29z"/>
			<path fill="#58C8FA" d="M64.2,44.32h8.3c0.518,0.0343,0.9657-0.3579,1-0.8759c0.0027-0.0413,0.0027-0.0828,0-0.1241v-4.09
				c0-2.8167-2.2833-5.1-5.1-5.1c-2.8167,0-5.1,2.2833-5.1,5.1l0,0v4.09c-0.0443,0.5062,0.3302,0.9524,0.8364,0.9967
				C64.1575,44.3185,64.1787,44.3196,64.2,44.32z M65.2,39.12c0.0017-1.7121,1.3909-3.0986,3.103-3.097
				c1.7097,0.0017,3.0953,1.3873,3.097,3.097v3.1h-6.3v-3.1H65.2z"/>
			<path fill="#58C8FA" d="M54,47.73c-2.8082,0.0109-5.0836,2.2818-5.1,5.09V57c0,0.5523,0.4477,1,1,1h8.3c0.5523,0,1-0.4477,1-1
				v-4.1C59.136,50.06,56.8403,47.7776,54,47.73z M57.1,56h-6.3v-3.1c0-1.7121,1.3879-3.1,3.1-3.1c1.7121,0,3.1,1.3879,3.1,3.1l0,0
				V56H57.1z"/>
			<path fill="#58C8FA" d="M64.2,58h8.3c0.5523,0,1-0.4477,1-1v-4.1c0-2.8167-2.2833-5.1-5.1-5.1c-2.8167,0-5.1,2.2833-5.1,5.1V57
				c-0.0443,0.5062,0.3302,0.9524,0.8364,0.9967C64.1575,57.9985,64.1787,57.9996,64.2,58z M65.2,52.79
				c0.0017-1.7121,1.3909-3.0986,3.103-3.097c1.7097,0.0017,3.0953,1.3873,3.097,3.097V56h-6.3v-3.18L65.2,52.79z"/>
		</g>
	</g>
</g>
</svg>
