<?xml version="1.0" encoding="utf-8"?>
<!-- Generator: Adobe Illustrator 22.0.1, SVG Export Plug-In . SVG Version: 6.00 Build 0)  -->
<svg version="1.1" id="Layer_1" xmlns="http://www.w3.org/2000/svg" xmlns:xlink="http://www.w3.org/1999/xlink" x="0px" y="0px"
	 width="76px" height="78.55px" viewBox="0 0 76 78.55" enable-background="new 0 0 76 78.55" xml:space="preserve">
<title>Asset 46</title>
<g id="Layer_2_1_">
	<g id="Layer_1-2">
		<g>
			<path fill="#58C8FA" d="M0.3,30.15c-0.3811,0.3888-0.3811,1.0112,0,1.4c0.1892,0.1817,0.438,0.2883,0.7,0.3
				c0.266,0.0071,0.5217-0.1025,0.7-0.3L4.3,29v14.8H2.8c-0.5523,0-1,0.4477-1,1s0.4477,1,1,1h72c0.5523,0,1-0.4477,1-1
				s-0.4477-1-1-1H67v-9l4.4,4.5c0.1892,0.1817,0.438,0.2883,0.7,0.3c0.266,0.0071,0.5217-0.1025,0.7-0.3
				c0.3811-0.3888,0.3811-1.0112,0-1.4L66.9,32v-2.5l4.4,4.5c0.1892,0.1817,0.438,0.2883,0.7,0.3
				c0.266,0.0071,0.5217-0.1025,0.7-0.3c0.3811-0.3888,0.3811-1.0112,0-1.4l-5.9-5.9v-2.5l4.4,4.5
				c0.1892,0.1817,0.438,0.2883,0.7,0.3c0.266,0.0071,0.5217-0.1025,0.7-0.3c0.3811-0.3888,0.3811-1.0112,0-1.4l-5.7-6.4l0,0
				c-0.3888-0.3811-1.0112-0.3811-1.4,0l0,0l-6.1,6.2c-0.4418,0.3314-0.5314,0.9582-0.2,1.4c0.3314,0.4418,0.9582,0.5314,1.4,0.2
				c0.0758-0.0569,0.1431-0.1242,0.2-0.2l4.4-4.5v2.5l-5.9,5.9c-0.3314,0.4418-0.2418,1.0686,0.2,1.4
				c0.3556,0.2667,0.8445,0.2667,1.2,0l4.4-4.5v2.5l-5.9,5.9c-0.3314,0.4418-0.2418,1.0686,0.2,1.4
				c0.3556,0.2667,0.8445,0.2667,1.2,0l4.4-4.5v9h-5L54.7,35V19.85l2.6,2.6c0.3314,0.4418,0.9582,0.5314,1.4,0.2
				c0.4418-0.3314,0.5314-0.9582,0.2-1.4c-0.0569-0.0758-0.1242-0.1431-0.2-0.2l-4-4v-1.9l2.6,2.6
				c0.3314,0.4418,0.9582,0.5314,1.4,0.2c0.4418-0.3314,0.5314-0.9582,0.2-1.4c-0.0569-0.0758-0.1242-0.1431-0.2-0.2l-4-4v-1.9
				l2.6,2.6c0.3314,0.4418,0.9582,0.5314,1.4,0.2c0.4418-0.3314,0.5314-0.9582,0.2-1.4c-0.0569-0.0758-0.1242-0.1431-0.2-0.2
				l-4.2-4.4l0,0c-0.3888-0.3811-1.0112-0.3811-1.4,0l0,0l-4.3,4.3c-0.3811,0.3888-0.3811,1.0112,0,1.4
				c0.1892,0.1817,0.438,0.2883,0.7,0.3c0.266,0.0071,0.5217-0.1025,0.7-0.3l2.6-2.6v1.9l-4,4c-0.3811,0.3888-0.3811,1.0112,0,1.4
				c0.1892,0.1817,0.438,0.2883,0.7,0.3c0.266,0.0071,0.5217-0.1025,0.7-0.3l2.6-2.6V17l-4,4c-0.3811,0.3888-0.3811,1.0112,0,1.4
				c0.1892,0.1817,0.438,0.2883,0.7,0.3c0.266,0.0071,0.5217-0.1025,0.7-0.3l2.6-2.6v12.1L33.2,0.45
				c-0.2909-0.4694-0.9073-0.6142-1.3768-0.3232C31.692,0.2081,31.5813,0.3188,31.5,0.45L6.3,41.05V29l2.6,2.6
				c0.3314,0.4418,0.9582,0.5314,1.4,0.2s0.5314-0.9582,0.2-1.4c-0.0569-0.0758-0.1242-0.1431-0.2-0.2l-4-4v-1.9l2.6,2.6
				c0.4418,0.3314,1.0686,0.2418,1.4-0.2c0.2667-0.3556,0.2667-0.8444,0-1.2l-4-4v-1.9l2.6,2.6c0.3314,0.4418,0.9582,0.5314,1.4,0.2
				s0.5314-0.9582,0.2-1.4c-0.0569-0.0758-0.1242-0.1431-0.2-0.2L6,16.45l0,0c-0.3888-0.3811-1.0112-0.3811-1.4,0l0,0l-4.3,4.3
				c-0.3811,0.3888-0.3811,1.0112,0,1.4c0.1892,0.1817,0.438,0.2883,0.7,0.3c0.266,0.0071,0.5217-0.1025,0.7-0.3l2.6-2.6v1.9l-4,4
				c-0.3811,0.3888-0.3811,1.0112,0,1.4c0.1892,0.1817,0.438,0.2883,0.7,0.3c0.266,0.0071,0.5217-0.1025,0.7-0.3l2.6-2.6v1.9
				L0.3,30.15z M30.9,43.65v-9l4.4,4.5c0.1892,0.1817,0.438,0.2883,0.7,0.3c0.266,0.0071,0.5217-0.1025,0.7-0.3
				c0.3811-0.3888,0.3811-1.0112,0-1.4l-5.9-5.9v-2.5l4.4,4.5c0.1892,0.1817,0.438,0.2883,0.7,0.3
				c0.266,0.0071,0.5217-0.1025,0.7-0.3c0.3811-0.3888,0.3811-1.0112,0-1.4l-5.9-5.9v-2.5l4.4,4.5
				c0.1892,0.1817,0.438,0.2883,0.7,0.3c0.266,0.0071,0.5217-0.1025,0.7-0.3c0.3811-0.3888,0.3811-1.0112,0-1.4l-5.9-6.3l0,0
				c-0.3888-0.3811-1.0112-0.3811-1.4,0l0,0l-6.1,6.2c-0.3314,0.4418-0.2418,1.0686,0.2,1.4c0.3556,0.2667,0.8444,0.2667,1.2,0
				L28.9,24v2.5L23,32.35c-0.3314,0.4418-0.2418,1.0686,0.2,1.4c0.3556,0.2667,0.8444,0.2667,1.2,0l4.4-4.5v2.5l-5.9,5.9
				c-0.3314,0.4418-0.2418,1.0686,0.2,1.4c0.3556,0.2667,0.8444,0.2667,1.2,0l4.4-4.5v9H7l17.6-28.4l1.9,2.4
				c0.3314,0.4418,0.9582,0.5314,1.4,0.2c0.0758-0.0569,0.1431-0.1242,0.2-0.2l1.7-2.2l1.7,2.2c0.207,0.229,0.4926,0.3718,0.8,0.4
				c0.3183,0.016,0.6218-0.1358,0.8-0.4l1.7-2.2l1.7,2.2c0.207,0.229,0.4926,0.3718,0.8,0.4c0.3183,0.016,0.6218-0.1358,0.8-0.4
				l1.9-2.4l17.6,28.4C57.6,43.55,30.9,43.65,30.9,43.65z M32.4,2.85l6.6,10.6l-1.5,2l-1.7-2.2
				c-0.2305-0.2539-0.5571-0.3991-0.9-0.4l0,0c-0.3183-0.016-0.6218,0.1358-0.8,0.4l-1.7,2.2l-1.7-2.2
				c-0.3314-0.4418-0.9582-0.5314-1.4-0.2c-0.0758,0.0569-0.1431,0.1242-0.2,0.2l-1.7,2.2l-1.5-2L32.4,2.85z"/>
			<path fill="#58C8FA" d="M75,52c-0.518-0.0343-0.9657,0.3579-1,0.8759c-0.0027,0.0413-0.0027,0.0828,0,0.1241
				c0,2.3196-1.8804,4.2-4.2,4.2c-2.3196,0-4.2-1.8804-4.2-4.2l0,0c0-0.5523-0.4477-1-1-1s-1,0.4477-1,1
				c0,2.3196-1.8804,4.2-4.2,4.2s-4.2-1.8804-4.2-4.2l0,0c0-0.5523-0.4477-1-1-1s-1,0.4477-1,1c0,2.3196-1.8804,4.2-4.2,4.2
				s-4.2-1.8804-4.2-4.2l0,0c0-0.5523-0.4477-1-1-1s-1,0.4477-1,1c0,2.3196-1.8804,4.2-4.2,4.2s-4.2-1.8804-4.2-4.2l0,0
				c0-0.5523-0.4477-1-1-1s-1,0.4477-1,1c-0.0027,2.3196-1.8852,4.1978-4.2048,4.1952C25.8793,57.1926,24.0027,55.3159,24,53
				c0-0.5523-0.4477-1-1-1s-1,0.4477-1,1c0,2.3196-1.8804,4.2-4.2,4.2s-4.2-1.8804-4.2-4.2c0-0.5523-0.4477-1-1-1s-1,0.4477-1,1
				c0,2.3196-1.8804,4.2-4.2,4.2S3.2,55.3196,3.2,53c0.0343-0.518-0.3579-0.9657-0.8759-1C2.2828,51.9973,2.2413,51.9973,2.2,52
				c-0.518-0.0343-0.9657,0.3579-1,0.8759C1.1973,52.9172,1.1973,52.9587,1.2,53c0.0164,3.4173,2.7827,6.1836,6.2,6.2
				c2.0979,0.0163,4.0588-1.0396,5.2-2.8c1.895,2.8719,5.7593,3.6638,8.6312,1.7688C21.9343,57.7049,22.536,57.1032,23,56.4
				c1.895,2.8719,5.7593,3.6638,8.6312,1.7688c0.7031-0.464,1.3049-1.0657,1.7688-1.7688c1.895,2.8719,5.7593,3.6638,8.6312,1.7688
				c0.7031-0.464,1.3049-1.0657,1.7688-1.7688c1.895,2.8719,5.7593,3.6638,8.6312,1.7688c0.7031-0.464,1.3049-1.0657,1.7688-1.7688
				c1.895,2.8719,5.7593,3.6638,8.6312,1.7688c0.7031-0.464,1.3049-1.0657,1.7688-1.7688c1.1412,1.7604,3.1021,2.8163,5.2,2.8
				c3.4173-0.0164,6.1836-2.7827,6.2-6.2C76,52.4477,75.5523,52,75,52z"/>
			<path fill="#58C8FA" d="M75,61.65c-0.518-0.0343-0.9657,0.3579-1,0.8759c-0.0027,0.0413-0.0027,0.0828,0,0.1241
				c0,2.3196-1.8804,4.2-4.2,4.2c-2.3196,0-4.2-1.8804-4.2-4.2c0-0.5523-0.4477-1-1-1s-1,0.4477-1,1c0,2.3196-1.8804,4.2-4.2,4.2
				s-4.2-1.8804-4.2-4.2c0-0.5523-0.4477-1-1-1s-1,0.4477-1,1c0,2.3196-1.8804,4.2-4.2,4.2s-4.2-1.8804-4.2-4.2
				c0-0.5523-0.4477-1-1-1s-1,0.4477-1,1c0,2.3196-1.8804,4.2-4.2,4.2s-4.2-1.8804-4.2-4.2c0-0.5523-0.4477-1-1-1s-1,0.4477-1,1
				c0,2.3196-1.8804,4.2-4.2,4.2s-4.2-1.8804-4.2-4.2c0-0.5523-0.4477-1-1-1s-1,0.4477-1,1c0,2.3196-1.8804,4.2-4.2,4.2
				s-4.2-1.8804-4.2-4.2c0-0.5523-0.4477-1-1-1s-1,0.4477-1,1c0,2.3196-1.8804,4.2-4.2,4.2s-4.2-1.8804-4.2-4.2
				c0.0343-0.518-0.3579-0.9657-0.8759-1c-0.0413-0.0027-0.0828-0.0027-0.1241,0c-0.518-0.0343-0.9657,0.3579-1,0.8759
				c-0.0027,0.0413-0.0027,0.0828,0,0.1241c0.0164,3.4173,2.7827,6.1836,6.2,6.2c2.0979,0.0163,4.0588-1.0396,5.2-2.8
				c1.895,2.8719,5.7593,3.6638,8.6312,1.7688C21.9343,67.3549,22.536,66.7532,23,66.05c1.895,2.8719,5.7593,3.6638,8.6312,1.7688
				c0.7031-0.464,1.3049-1.0657,1.7688-1.7688c1.895,2.8719,5.7593,3.6638,8.6312,1.7688c0.7031-0.464,1.3049-1.0657,1.7688-1.7688
				c1.895,2.8719,5.7593,3.6638,8.6312,1.7688c0.7031-0.464,1.3049-1.0657,1.7688-1.7688c1.895,2.8719,5.7593,3.6638,8.6312,1.7688
				c0.7031-0.464,1.3049-1.0657,1.7688-1.7688c1.1412,1.7604,3.1021,2.8163,5.2,2.8c3.4173-0.0164,6.1836-2.7827,6.2-6.2
				C76,62.0977,75.5523,61.65,75,61.65z"/>
			<path fill="#58C8FA" d="M74,72.35c0,2.3196-1.8804,4.2-4.2,4.2c-2.3196,0-4.2-1.8804-4.2-4.2c0-0.5523-0.4477-1-1-1
				s-1,0.4477-1,1c0,2.3196-1.8804,4.2-4.2,4.2s-4.2-1.8804-4.2-4.2c0-0.5523-0.4477-1-1-1s-1,0.4477-1,1
				c0,2.3196-1.8804,4.2-4.2,4.2s-4.2-1.8804-4.2-4.2c0-0.5523-0.4477-1-1-1s-1,0.4477-1,1c0,2.3196-1.8804,4.2-4.2,4.2
				s-4.2-1.8804-4.2-4.2c0-0.5523-0.4477-1-1-1s-1,0.4477-1,1c0,2.3196-1.8804,4.2-4.2,4.2s-4.2-1.8804-4.2-4.2
				c0-0.5523-0.4477-1-1-1s-1,0.4477-1,1c0,2.3196-1.8804,4.2-4.2,4.2s-4.2-1.8804-4.2-4.2c0-0.5523-0.4477-1-1-1s-1,0.4477-1,1
				c0,2.3196-1.8804,4.2-4.2,4.2s-4.2-1.8804-4.2-4.2c0.0343-0.518-0.3579-0.9657-0.8759-1c-0.0413-0.0027-0.0828-0.0027-0.1241,0
				c-0.518-0.0343-0.9657,0.3579-1,0.8759c-0.0027,0.0413-0.0027,0.0828,0,0.1241c0.0164,3.4173,2.7827,6.1836,6.2,6.2
				c2.0979,0.0163,4.0588-1.0396,5.2-2.8c1.895,2.8719,5.7593,3.6638,8.6312,1.7688C21.9343,77.0549,22.536,76.4531,23,75.75
				c1.895,2.8719,5.7593,3.6638,8.6312,1.7688c0.7031-0.464,1.3049-1.0657,1.7688-1.7688c1.895,2.8719,5.7593,3.6638,8.6312,1.7688
				c0.7031-0.464,1.3049-1.0657,1.7688-1.7688c1.895,2.8719,5.7593,3.6638,8.6312,1.7688c0.7031-0.464,1.3049-1.0657,1.7688-1.7688
				c1.895,2.8719,5.7593,3.6638,8.6312,1.7688c0.7031-0.464,1.3049-1.0657,1.7688-1.7688c1.1412,1.7604,3.1021,2.8163,5.2,2.8
				c3.4173-0.0164,6.1836-2.7827,6.2-6.2c0-0.5523-0.4477-1-1-1S74,71.7977,74,72.35z"/>
		</g>
	</g>
</g>
</svg>
