<?xml version="1.0" encoding="utf-8"?>
<!-- Generator: Adobe Illustrator 23.0.2, SVG Export Plug-In . SVG Version: 6.00 Build 0)  -->
<svg version="1.1" id="Layer_1" xmlns="http://www.w3.org/2000/svg" xmlns:xlink="http://www.w3.org/1999/xlink" x="0px" y="0px"
	 viewBox="0 0 100 125" style="enable-background:new 0 0 100 125;" xml:space="preserve">
<path d="M76.4,29c0.2-1.1,0.3-2.1,0.3-3.2c0-8.8-7.2-15.9-15.9-15.9c-6.3,0-11.9,3.7-14.5,9.3c-2-1.2-4.3-1.9-6.6-1.9
	c-5.4,0-10.2,3.4-11.9,8.5c-0.5-0.1-1-0.1-1.5-0.1c-8.8,0-15.9,7.2-15.9,15.9s7.2,15.9,15.9,15.9h50.2c0.1,0,0.2,0,0.3-0.1
	C84.2,57.1,90,50.8,90,43.3C90,35.7,83.9,29.4,76.4,29z M76.4,55.6c-0.1,0-0.1,0-0.2,0h-50c-7.7,0-13.9-6.3-13.9-13.9
	s6.3-13.9,13.9-13.9c0.6,0,1.3,0.1,2,0.2c0.5,0.1,1-0.2,1.1-0.7c1.3-4.6,5.5-7.8,10.3-7.8c2.4,0,4.6,0.8,6.5,2.2
	c0.3,0.2,0.6,0.3,0.9,0.2c0.3-0.1,0.6-0.3,0.7-0.6c2-5.5,7.3-9.2,13.1-9.2c7.7,0,13.9,6.3,13.9,13.9c0,1.3-0.2,2.6-0.6,3.9
	c-0.1,0.3,0,0.6,0.2,0.9c0.2,0.3,0.5,0.4,0.8,0.4l0.2,0c0.1,0,0.2,0,0.3,0C82.5,31,88,36.6,88,43.3C88,49.9,82.9,55.3,76.4,55.6z"/>
<path d="M31.3,62L22,75.2c-0.3,0.5-0.2,1.1,0.2,1.4c0.2,0.1,0.4,0.2,0.6,0.2c0.3,0,0.6-0.1,0.8-0.4l9.3-13.2
	c0.3-0.5,0.2-1.1-0.2-1.4C32.2,61.4,31.6,61.5,31.3,62z"/>
<path d="M41.9,62L30.6,78.2c-0.3,0.5-0.2,1.1,0.2,1.4c0.2,0.1,0.4,0.2,0.6,0.2c0.3,0,0.6-0.1,0.8-0.4l11.4-16.2
	c0.3-0.5,0.2-1.1-0.2-1.4C42.9,61.4,42.2,61.5,41.9,62z"/>
<path d="M52.6,62l-9.3,13.2c-0.3,0.5-0.2,1.1,0.2,1.4c0.2,0.1,0.4,0.2,0.6,0.2c0.3,0,0.6-0.1,0.8-0.4l9.3-13.2
	c0.3-0.5,0.2-1.1-0.2-1.4C53.5,61.4,52.9,61.5,52.6,62z"/>
<path d="M63.2,62l-5.3,7.5c-0.3,0.5-0.2,1.1,0.2,1.4c0.2,0.1,0.4,0.2,0.6,0.2c0.3,0,0.6-0.1,0.8-0.4l5.3-7.5
	c0.3-0.5,0.2-1.1-0.2-1.4C64.1,61.4,63.5,61.5,63.2,62z"/>
<path d="M60.7,82.4c0.2,0.1,0.4,0.2,0.6,0.2c0.3,0,0.6-0.1,0.8-0.4l13.3-19c0.3-0.5,0.2-1.1-0.2-1.4c-0.4-0.3-1.1-0.2-1.4,0.2
	L60.5,81C60.2,81.4,60.3,82,60.7,82.4z"/>
<path d="M27.5,82.6l-3.3,4.8c-0.3,0.5-0.2,1.1,0.2,1.4c0.2,0.1,0.4,0.2,0.6,0.2c0.3,0,0.6-0.1,0.8-0.4l3.3-4.8
	c0.3-0.5,0.2-1.1-0.2-1.4C28.4,82,27.8,82.1,27.5,82.6z"/>
<path d="M40,79.8l-6,8.5c-0.3,0.5-0.2,1.1,0.2,1.4c0.2,0.1,0.4,0.2,0.6,0.2c0.3,0,0.6-0.1,0.8-0.4l6-8.5c0.3-0.5,0.2-1.1-0.2-1.4
	C41,79.3,40.4,79.4,40,79.8z"/>
<path d="M49.1,83.9c0.2,0.1,0.4,0.2,0.6,0.2c0.3,0,0.6-0.1,0.8-0.4l6-8.5c0.3-0.5,0.2-1.1-0.2-1.4c-0.5-0.3-1.1-0.2-1.4,0.2l-6,8.5
	C48.5,82.9,48.6,83.5,49.1,83.9z"/>
</svg>
