<?xml version="1.0" encoding="utf-8"?>
<!-- Generator: Adobe Illustrator 23.0.2, SVG Export Plug-In . SVG Version: 6.00 Build 0)  -->
<svg version="1.1" id="Layer_1" xmlns="http://www.w3.org/2000/svg" xmlns:xlink="http://www.w3.org/1999/xlink" x="0px" y="0px"
	 viewBox="0 0 100 125" style="enable-background:new 0 0 100 125;" xml:space="preserve">
<path d="M11.1,89.7h76.2c0.6,0,1-0.4,1-1V56.8c0-0.6-0.4-1-1-1h-4c-0.6,0-1,0.4-1,1v1.8h-2.8v-1.8c0-0.6-0.4-1-1-1H75
	c-0.6,0-1,0.4-1,1v1.8h-2.8v-1.8c0-0.6-0.4-1-1-1h-3V41.5v-0.1l1.7-9.6c0.1-0.3,0-0.6-0.2-0.8c-0.2-0.2-0.5-0.4-0.8-0.4h-4.7
	c-0.6,0-1,0.4-1,1v2.2h-3.6v-2.2c0-0.6-0.4-1-1-1h-5.2c-0.6,0-1,0.4-1,1v2.2h-0.7V21.6c0.3-0.2,1.3-0.7,2.7-0.7
	c-0.2,0.5-0.1,1,0.2,1.3c0.5,0.5,1.5,0.7,2.9,0.7c2.1,0,5-0.5,7.3-1.5c3.9-1.7,5.7-0.2,5.8-0.2c0.3,0.3,0.8,0.3,1.2,0.1
	c0.4-0.3,0.5-0.7,0.4-1.2c0-0.1-0.8-2.3-2.5-3.6c0.4-0.2,1-0.3,1.7-0.4c0.4,0,0.7-0.3,0.9-0.7s0-0.8-0.3-1.1
	c-0.2-0.1-4.3-3.4-10.5-0.8c-2.2,0.9-3.2,1-3.6,1V14c0-0.3-0.2-0.7-0.5-0.9c-0.1-0.1-2.8-1.7-5.6-0.7v-1.1c0-0.6-0.4-1-1-1
	s-1,0.4-1,1v22.4h-0.9v-2.2c0-0.6-0.4-1-1-1h-5.4c-0.6,0-1,0.4-1,1v2.2h-3.7v-2.2c0-0.6-0.4-1-1-1h-5.2c-0.3,0-0.6,0.1-0.8,0.4
	c-0.2,0.2-0.3,0.5-0.2,0.8l1.7,9.6v0.1v14.3h-3c-0.6,0-1,0.4-1,1v1.8h-2.8v-1.8c0-0.6-0.4-1-1-1H20c-0.6,0-1,0.4-1,1v1.8h-2.8v-1.8
	c0-0.6-0.4-1-1-1h-4c-0.6,0-1,0.4-1,1v31.8C10.1,89.2,10.6,89.7,11.1,89.7z M61.1,15.5c2.6-1.1,4.7-0.9,6.2-0.5
	c-0.9,0.4-1.4,0.9-1.6,1.2c-0.3,0.3-0.3,0.7-0.2,1c0.1,0.4,0.5,0.6,0.9,0.6c0.6,0,1.1,0.4,1.6,0.8c-1.3-0.1-2.9,0-5,0.9
	c-2.4,1.1-4.9,1.4-6.4,1.4c0.2-0.2,0.3-0.4,0.3-0.7v-3.6C57.8,16.7,59.2,16.3,61.1,15.5z M54.8,14.8V15v0.1V19c-0.1,0-0.3,0-0.4,0
	c-0.1-0.1-0.3-0.1-0.5,0c-1.3,0-2.5,0.2-3.3,0.5v-4.7C52.3,13.9,54,14.4,54.8,14.8z M33.3,42.5h31.9v45.1h-6.7
	c0-2.7-0.4-13.8-8.6-21c-0.4-0.3-0.9-0.3-1.3,0c-8.2,7.2-8.6,18.3-8.6,21h-6.7C33.3,87.6,33.3,42.5,33.3,42.5z M48.2,69.8v17.9H42
	C42,85.4,42.4,76.3,48.2,69.8z M50.2,69.8c5.9,6.5,6.3,15.6,6.3,17.9h-6.3V69.8z M69.2,57.8v1.8c0,0.6,0.4,1,1,1H75c0.6,0,1-0.4,1-1
	v-1.8h1.5v1.8c0,0.6,0.4,1,1,1h4.8c0.6,0,1-0.4,1-1v-1.8h2v29.8H67.2V57.8H69.2z M34.8,32.7v2.2c0,0.6,0.4,1,1,1h5.7
	c0.6,0,1-0.4,1-1v-2.2h3.4v2.2c0,0.6,0.4,1,1,1h5.6c0.6,0,1-0.4,1-1v-2.2h3.2v2.2c0,0.6,0.4,1,1,1h5.6c0.6,0,1-0.4,1-1v-2.2h2.5
	l-1.4,7.9H33.2l-1.4-7.9H34.8z M12.1,57.8h2v1.8c0,0.6,0.4,1,1,1h4.8c0.6,0,1-0.4,1-1v-1.8h1.5v1.8c0,0.6,0.4,1,1,1h4.8
	c0.6,0,1-0.4,1-1v-1.8h2v29.8H12.1V57.8z"/>
<path d="M21.7,64.1c-2,0-3.5,1.6-3.5,3.5V72c0,0.6,0.4,1,1,1h5.1c0.6,0,1-0.4,1-1v-4.4C25.2,65.7,23.6,64.1,21.7,64.1z M23.2,71
	h-3.1v-3.4c0-0.9,0.7-1.5,1.5-1.5s1.5,0.7,1.5,1.5V71H23.2z"/>
<path d="M74.2,73h5.1c0.6,0,1-0.4,1-1v-4.4c0-2-1.6-3.5-3.5-3.5s-3.5,1.6-3.5,3.5V72C73.2,72.5,73.7,73,74.2,73z M75.2,67.6
	c0-0.9,0.7-1.5,1.5-1.5s1.5,0.7,1.5,1.5V71h-3.1L75.2,67.6L75.2,67.6z"/>
</svg>
