<?xml version="1.0" encoding="utf-8"?>
<!-- Generator: Adobe Illustrator 23.0.2, SVG Export Plug-In . SVG Version: 6.00 Build 0)  -->
<svg version="1.1" id="Layer_1" xmlns="http://www.w3.org/2000/svg" xmlns:xlink="http://www.w3.org/1999/xlink" x="0px" y="0px"
	 viewBox="0 0 100 125" style="enable-background:new 0 0 100 125;" xml:space="preserve">
<style type="text/css">
	.st0{font-family:'AvenirNext-Regular';}
	.st1{font-size:43px;}
</style>
<path d="M14.8,64.7c5.3,9.2,7.9,14.1,7.9,24.3c0,0.6,0.4,1,1,1h40.9c0.6,0,1-0.4,1-1v-8.4h5c5.2,0,9.4-4.1,9.4-9.1V68h5
	c1.7,0,3.3-0.8,4.2-2.3c0.9-1.4,1-3,0.4-4.5l-1.3-3C86.8,54.8,86,51,86,46.8c0-10.1-4.1-19.5-11.6-26.5c-7.7-7.2-18.3-11-29.1-10.2
	c-18.6,1.2-33.7,15.8-35.2,33.8C9.5,51.2,11.2,58.4,14.8,64.7z M12.1,44c1.4-17,15.7-30.8,33.3-31.9C55.6,11.4,65.7,15,73,21.8
	c7.1,6.6,11,15.5,11,25.1c0,4.4,0.8,8.4,2.4,12.1l1.3,3c0.4,0.9,0.3,1.8-0.2,2.6C87,65.4,86,65.9,85,65.9h-6.1c-0.6,0-1,0.4-1,1v4.5
	c0,3.9-3.3,7.1-7.4,7.1h-6c-0.6,0-1,0.4-1,1V88H24.7c-0.2-10-2.8-15.1-8.1-24.3C13.1,57.7,11.6,50.9,12.1,44z"/>
<text transform="matrix(1 0 0 1 36.1692 57.5194)" class="st0 st1">?</text>
</svg>
