<?xml version="1.0" encoding="utf-8"?>
<!-- Generator: Adobe Illustrator 23.0.2, SVG Export Plug-In . SVG Version: 6.00 Build 0)  -->
<svg version="1.1" id="Layer_1" xmlns="http://www.w3.org/2000/svg" xmlns:xlink="http://www.w3.org/1999/xlink" x="0px" y="0px"
	 viewBox="0 0 100 125" style="enable-background:new 0 0 100 125;" xml:space="preserve">
<path d="M21.2,32.3l-6.3,6.3c-0.3,0.3-0.4,0.7-0.2,1.1c0.2,0.4,0.5,0.6,0.9,0.6h23.8c0.6,0,1-0.4,1-1V15.5c0-0.4-0.2-0.8-0.6-0.9
	c-0.4-0.2-0.8-0.1-1.1,0.2l-6.4,6.4L21.4,10.3c-0.4-0.4-1-0.4-1.4,0L10.3,20c-0.4,0.4-0.4,1,0,1.4L21.2,32.3z M20.6,12.4l10.9,10.9
	c0.4,0.4,1,0.4,1.4,0l5.4-5.4v20.4H18l5.3-5.3c0.4-0.4,0.4-1,0-1.4L12.4,20.7L20.6,12.4z"/>
<path d="M10.3,80.1l9.6,9.6c0.2,0.2,0.5,0.3,0.7,0.3s0.5-0.1,0.7-0.3l10.9-10.9l6.3,6.3c0.3,0.3,0.7,0.4,1.1,0.2
	c0.4-0.2,0.6-0.5,0.6-0.9V60.7c0-0.6-0.4-1-1-1H15.5c-0.4,0-0.8,0.2-0.9,0.6c-0.2,0.4-0.1,0.8,0.2,1.1l6.4,6.4L10.3,78.6
	C9.9,79,9.9,79.7,10.3,80.1z M23.3,68.5c0.4-0.4,0.4-1,0-1.4l-5.4-5.4h20.4V82L33,76.7c-0.4-0.4-1-0.4-1.4,0L20.7,87.6l-8.2-8.2
	L23.3,68.5z"/>
<path d="M78.8,67.7l6.3-6.3c0.3-0.3,0.4-0.7,0.2-1.1c-0.2-0.4-0.5-0.6-0.9-0.6H60.7c-0.6,0-1,0.4-1,1v23.8c0,0.4,0.2,0.8,0.6,0.9
	c0.4,0.2,0.8,0.1,1.1-0.2l6.4-6.4l10.9,10.9c0.2,0.2,0.5,0.3,0.7,0.3s0.5-0.1,0.7-0.3l9.6-9.6c0.4-0.4,0.4-1,0-1.4L78.8,67.7z
	 M79.4,87.6L68.5,76.7c-0.2-0.2-0.5-0.3-0.7-0.3s-0.5,0.1-0.7,0.3l-5.4,5.4V61.7H82L76.7,67c-0.4,0.4-0.4,1,0,1.4l10.9,10.9
	L79.4,87.6z"/>
<path d="M89.7,19.9L80,10.3c-0.4-0.4-1-0.4-1.4,0L67.7,21.2l-6.3-6.3c-0.3-0.3-0.7-0.4-1.1-0.2c-0.4,0.2-0.6,0.5-0.6,0.9v23.8
	c0,0.6,0.4,1,1,1h23.8c0.4,0,0.8-0.2,0.9-0.6c0.2-0.4,0.1-0.8-0.2-1.1l-6.4-6.4l10.9-10.9C90.1,21,90.1,20.3,89.7,19.9z M76.7,31.5
	c-0.4,0.4-0.4,1,0,1.4l5.4,5.4H61.7V18l5.3,5.3c0.4,0.4,1,0.4,1.4,0l10.9-10.9l8.2,8.2L76.7,31.5z"/>
</svg>
