<?xml version="1.0" encoding="utf-8"?>
<!-- Generator: Adobe Illustrator 23.0.2, SVG Export Plug-In . SVG Version: 6.00 Build 0)  -->
<svg version="1.1" id="Layer_1" xmlns="http://www.w3.org/2000/svg" xmlns:xlink="http://www.w3.org/1999/xlink" x="0px" y="0px"
	 viewBox="0 0 100 125" style="enable-background:new 0 0 100 125;" xml:space="preserve">
<path d="M50.1,27.7c-12.3,0-22.3,10-22.3,22.3s10,22.3,22.3,22.3s22.3-10,22.3-22.3S62.4,27.7,50.1,27.7z M50.1,70.3
	c-11.2,0-20.3-9.1-20.3-20.3s9.1-20.3,20.3-20.3S70.4,38.8,70.4,50S61.3,70.3,50.1,70.3z"/>
<path d="M51,20.6V11c0-0.6-0.4-1-1-1s-1,0.4-1,1v9.6c0,0.6,0.4,1,1,1S51,21.1,51,20.6z"/>
<path d="M35.3,25.5c0.2,0,0.3,0,0.5-0.1c0.5-0.3,0.6-0.9,0.4-1.4l-4.8-8.3c-0.3-0.5-0.9-0.6-1.4-0.4c-0.5,0.3-0.6,0.9-0.4,1.4
	l4.8,8.3C34.6,25.4,34.9,25.5,35.3,25.5z"/>
<path d="M25.4,35.8c0.3-0.5,0.1-1.1-0.4-1.4l-8.3-4.8c-0.5-0.3-1.1-0.1-1.4,0.4c-0.3,0.5-0.1,1.1,0.4,1.4l8.3,4.8
	c0.2,0.1,0.3,0.1,0.5,0.1C24.9,36.3,25.2,36.2,25.4,35.8z"/>
<path d="M21.6,50.1c0-0.6-0.4-1-1-1h-9.6c-0.6,0-1,0.4-1,1s0.4,1,1,1h9.6C21.2,51.1,21.6,50.6,21.6,50.1z"/>
<path d="M15.4,70.1c0.2,0.3,0.5,0.5,0.9,0.5c0.2,0,0.3,0,0.5-0.1l8.3-4.8c0.5-0.3,0.6-0.9,0.4-1.4c-0.3-0.5-0.9-0.6-1.4-0.4
	l-8.3,4.8C15.3,69,15.2,69.6,15.4,70.1z"/>
<path d="M34.5,75l-4.8,8.3c-0.3,0.5-0.1,1.1,0.4,1.4c0.2,0.1,0.3,0.1,0.5,0.1c0.3,0,0.7-0.2,0.9-0.5l4.8-8.3
	c0.3-0.5,0.1-1.1-0.4-1.4C35.4,74.4,34.8,74.5,34.5,75z"/>
<path d="M49.1,79.4V89c0,0.6,0.4,1,1,1s1-0.4,1-1v-9.6c0-0.6-0.4-1-1-1S49.1,78.9,49.1,79.4z"/>
<path d="M64.3,74.6c-0.5,0.3-0.6,0.9-0.4,1.4l4.8,8.3c0.2,0.3,0.5,0.5,0.9,0.5c0.2,0,0.3,0,0.5-0.1c0.5-0.3,0.6-0.9,0.4-1.4L65.7,75
	C65.4,74.5,64.8,74.3,64.3,74.6z"/>
<path d="M74.7,64.2c-0.3,0.5-0.1,1.1,0.4,1.4l8.3,4.8c0.2,0.1,0.3,0.1,0.5,0.1c0.3,0,0.7-0.2,0.9-0.5c0.3-0.5,0.1-1.1-0.4-1.4
	l-8.3-4.8C75.6,63.5,75,63.7,74.7,64.2z"/>
<path d="M89.1,48.9h-9.6c-0.6,0-1,0.4-1,1s0.4,1,1,1h9.6c0.6,0,1-0.4,1-1S89.6,48.9,89.1,48.9z"/>
<path d="M84.7,29.9c-0.3-0.5-0.9-0.6-1.4-0.4L75,34.4c-0.5,0.3-0.6,0.9-0.4,1.4c0.2,0.3,0.5,0.5,0.9,0.5c0.2,0,0.3,0,0.5-0.1
	l8.3-4.8C84.8,31,84.9,30.4,84.7,29.9z"/>
<path d="M64.7,25.5c0.3,0,0.7-0.2,0.9-0.5l4.8-8.3c0.3-0.5,0.1-1.1-0.4-1.4c-0.5-0.3-1.1-0.1-1.4,0.4L63.8,24
	c-0.3,0.5-0.1,1.1,0.4,1.4C64.4,25.4,64.5,25.5,64.7,25.5z"/>
</svg>
