<?xml version="1.0" encoding="utf-8"?>
<!-- Generator: Adobe Illustrator 23.0.2, SVG Export Plug-In . SVG Version: 6.00 Build 0)  -->
<svg version="1.1" id="Layer_1" xmlns="http://www.w3.org/2000/svg" xmlns:xlink="http://www.w3.org/1999/xlink" x="0px" y="0px"
	 viewBox="0 0 100 125" style="enable-background:new 0 0 100 125;" xml:space="preserve">
<path d="M11.1,87h33.5c1.1,1.9,3.1,3.1,5.3,3.1s4.3-1.2,5.3-3.1h33.8c0.6,0,1-0.4,1-1V16.7c0-0.6-0.4-1-1-1h-3.8V15
	c0-0.4-0.2-0.7-0.6-0.9C65.5,4.9,53.2,13.5,50.1,16c-1.3-1.1-4.2-3.2-8.6-4.7c-5.5-1.8-14.4-2.7-26,2.8c-0.3,0.2-0.6,0.5-0.6,0.9
	v0.7h-3.8c-0.6,0-1,0.4-1,1V86C10.1,86.5,10.6,87,11.1,87z M83.3,15.7v62.6c-16.9-6.9-28.1-1.1-32.2,1.8c0-19,0.1-57.1,0-62.2
	C53.1,16,64.3,6.9,83.3,15.7z M49.1,17.8c0.1,4.1,0,40.9,0,62.2c-1.5-1.1-4-2.6-7.5-3.7c-2.4-0.7-5.4-1.3-9.1-1.3
	c-4.4,0-9.6,0.8-15.6,3.3V16.7c0,0,0,0,0,0v0v-1C36,6.8,47.3,16.1,49.1,17.8z M12.1,17.7h2.8v62.1c0,0.3,0.2,0.7,0.5,0.8
	s0.6,0.2,1,0.1c11.1-4.9,19.5-4.1,24.6-2.5c5.5,1.7,8.5,4.6,8.5,4.6c0,0,0,0,0,0c0.1,0.1,0.2,0.1,0.3,0.2c0.1,0,0.2,0,0.2,0.1
	c0,0,0.1,0,0.1,0c0,0,0,0,0,0c0,0,0.1,0,0.1,0c0.1,0,0.2,0,0.3-0.1c0.1,0,0.2-0.1,0.2-0.2c0,0,0.1,0,0.1-0.1c0,0,0,0,0,0
	c0,0,0,0,0,0c0.1-0.1,3.1-2.9,8.6-4.6c5.1-1.6,13.5-2.4,24.5,2.5c0.3,0.1,0.7,0.1,0.9-0.1c0.3-0.2,0.5-0.5,0.5-0.8V17.7h2.8V85H54.7
	c-0.4,0-0.8,0.2-0.9,0.6c-0.7,1.5-2.1,2.5-3.8,2.5s-3.2-1-3.8-2.5C46,85.2,45.7,85,45.3,85H12.1V17.7z"/>
</svg>
