<?xml version="1.0" encoding="utf-8"?>
<!-- Generator: Adobe Illustrator 23.0.2, SVG Export Plug-In . SVG Version: 6.00 Build 0)  -->
<svg version="1.1" id="Layer_1" xmlns="http://www.w3.org/2000/svg" xmlns:xlink="http://www.w3.org/1999/xlink" x="0px" y="0px"
	 viewBox="0 0 100 125" style="enable-background:new 0 0 100 125;" xml:space="preserve">
<path d="M74.4,90h7.6c2,0,3.6-1.6,3.6-3.6V54.7c3.3-2,5-5.9,4.4-9.7c-0.7-4.2-4.1-7.4-8.3-7.9c-0.1,0-0.1,0-0.2,0
	c-0.5-15-12.9-27.1-28-27.1h-6.8c-15.1,0-27.5,12.1-28,27.1c-0.1,0-0.1,0-0.2,0c-4.2,0.5-7.6,3.8-8.3,7.9c-0.6,3.9,1.1,7.7,4.4,9.7
	v31.7c0,2,1.6,3.6,3.6,3.6h7.6c2,0,3.6-1.6,3.6-3.6v-1.2h41.6v1.2C70.8,88.4,72.4,90,74.4,90z M29.2,54.9c22.1-7.7,39.3-1,41.6,0
	v16.6H29.2V54.9z M87.9,45.3c0.5,3.3-1,6.4-3.9,8c-0.3,0.2-0.5,0.5-0.5,0.9v32.3c0,0.9-0.7,1.6-1.6,1.6h-7.6c-0.9,0-1.6-0.7-1.6-1.6
	V46.6c0-2.2,0.9-4.2,2.5-5.7c1.4-1.3,3.2-1.9,5-1.9c0,0,0,0,0,0c0,0,0,0,0,0c0,0,0,0,0,0c0.3,0,0.6,0,0.9,0.1
	C84.7,39.4,87.4,42,87.9,45.3z M46.6,12h6.8c14,0,25.5,11.2,26,25.1c-2,0.2-3.8,1-5.3,2.4c-2,1.8-3.2,4.4-3.2,7.2v6.1
	c-4.4-1.7-20.6-7-41.6,0.1v-6.2c0-2.7-1.2-5.3-3.2-7.2c-1.5-1.3-3.4-2.1-5.3-2.4C21.1,23.2,32.6,12,46.6,12z M27.2,86.4
	c0,0.9-0.7,1.6-1.6,1.6h-7.6c-0.9,0-1.6-0.7-1.6-1.6V54.1c0-0.4-0.2-0.7-0.5-0.9c-2.9-1.6-4.4-4.7-3.9-8c0.5-3.3,3.2-5.9,6.6-6.3
	c2.2-0.3,4.3,0.4,6,1.9c1.6,1.4,2.5,3.5,2.5,5.7V86.4z M29.2,83.3v-9.8h41.6v9.8H29.2z"/>
</svg>
