<?xml version="1.0" encoding="utf-8"?>
<!-- Generator: Adobe Illustrator 23.0.2, SVG Export Plug-In . SVG Version: 6.00 Build 0)  -->
<svg version="1.1" id="Layer_1" xmlns="http://www.w3.org/2000/svg" xmlns:xlink="http://www.w3.org/1999/xlink" x="0px" y="0px"
	 viewBox="0 0 100 125" style="enable-background:new 0 0 100 125;" xml:space="preserve">
<path d="M49.9,80.2c-0.6,0-1,0.4-1,1v7.9c0,0.6,0.4,1,1,1s1-0.4,1-1v-7.9C50.9,80.7,50.4,80.2,49.9,80.2z"/>
<path d="M49.9,66.9c-0.6,0-1,0.4-1,1v5.9c0,0.6,0.4,1,1,1s1-0.4,1-1v-5.9C50.9,67.3,50.4,66.9,49.9,66.9z"/>
<path d="M49.9,55.2c-0.6,0-1,0.4-1,1v3.9c0,0.6,0.4,1,1,1s1-0.4,1-1v-3.9C50.9,55.6,50.4,55.2,49.9,55.2z"/>
<path d="M56.2,46.9c0,0.1,0,0.1,0.1,0.2l23.2,42.5c0.2,0.3,0.5,0.5,0.9,0.5c0.2,0,0.3,0,0.5-0.1c0.5-0.3,0.7-0.9,0.4-1.4L58.4,46.9
	h2.4c0,0.1,0,0.2,0.1,0.2l27.2,42.5c0.2,0.3,0.5,0.5,0.8,0.5c0.2,0,0.4-0.1,0.5-0.2c0.5-0.3,0.6-0.9,0.3-1.4L63.1,46.9H89
	c0.6,0,1-0.4,1-1s-0.4-1-1-1h-8.8L63.1,15.4c-0.4-0.6-1.4-0.6-1.7,0l-8.5,14.7L41.5,10.4c-0.4-0.6-1.4-0.6-1.7,0L19.8,44.9H11
	c-0.6,0-1,0.4-1,1s0.4,1,1,1h25.8L10.2,88.6c-0.3,0.5-0.2,1.1,0.3,1.4c0.2,0.1,0.4,0.2,0.5,0.2c0.3,0,0.7-0.2,0.8-0.5L39,47.2
	c0-0.1,0.1-0.2,0.1-0.2h2.4L18.8,88.6c-0.3,0.5-0.1,1.1,0.4,1.4c0.2,0.1,0.3,0.1,0.5,0.1c0.4,0,0.7-0.2,0.9-0.5l23.2-42.5
	c0-0.1,0-0.1,0.1-0.2h5.1v2.4c0,0.6,0.4,1,1,1s1-0.4,1-1v-2.4L56.2,46.9L56.2,46.9z M54,32.1l8.2-14.2l15.6,27H61.4L54,32.1
	C54,32.1,54,32.1,54,32.1z M40.6,12.9l18.5,32h-37L40.6,12.9z"/>
</svg>
