<?xml version="1.0" encoding="utf-8"?>
<!-- Generator: Adobe Illustrator 23.0.2, SVG Export Plug-In . SVG Version: 6.00 Build 0)  -->
<svg version="1.1" id="Layer_1" xmlns="http://www.w3.org/2000/svg" xmlns:xlink="http://www.w3.org/1999/xlink" x="0px" y="0px"
	 viewBox="0 0 100 125" style="enable-background:new 0 0 100 125;" xml:space="preserve">
<path d="M89,88H76.4V11.1c0-0.6-0.4-1-1-1h-51c-0.6,0-1,0.4-1,1V88H11c-0.6,0-1,0.4-1,1s0.4,1,1,1h78c0.6,0,1-0.4,1-1S89.6,88,89,88
	z M25.4,12.1h49V88h-3.6V17c0-0.6-0.4-1-1-1H30c-0.6,0-1,0.4-1,1v71h-3.6L25.4,12.1L25.4,12.1z M68.8,88H31V18h37.8V88z"/>
<path d="M34.4,59.8c0.6,0,1-0.4,1-1v-6.5c0-0.6-0.4-1-1-1s-1,0.4-1,1v6.5C33.4,59.4,33.9,59.8,34.4,59.8z"/>
</svg>
