<?xml version="1.0" encoding="utf-8"?>
<!-- Generator: Adobe Illustrator 23.0.2, SVG Export Plug-In . SVG Version: 6.00 Build 0)  -->
<svg version="1.1" id="Layer_1" xmlns="http://www.w3.org/2000/svg" xmlns:xlink="http://www.w3.org/1999/xlink" x="0px" y="0px"
	 viewBox="0 0 100 125" style="enable-background:new 0 0 100 125;" xml:space="preserve">
<path d="M17.5,40.6h8.3c0.6,0,1-0.4,1-1v-8.3c0-0.6-0.4-1-1-1h-8.3c-0.6,0-1,0.4-1,1v8.3C16.5,40.2,17,40.6,17.5,40.6z M18.5,32.3
	h6.3v6.3h-6.3V32.3z"/>
<path d="M31.9,40.6h8.3c0.6,0,1-0.4,1-1v-8.3c0-0.6-0.4-1-1-1h-8.3c-0.6,0-1,0.4-1,1v8.3C30.9,40.2,31.3,40.6,31.9,40.6z M32.9,32.3
	h6.3v6.3h-6.3V32.3z"/>
<path d="M17.5,54.3h8.3c0.6,0,1-0.4,1-1V45c0-0.6-0.4-1-1-1h-8.3c-0.6,0-1,0.4-1,1v8.3C16.5,53.8,17,54.3,17.5,54.3z M18.5,46h6.3
	v6.3h-6.3V46z"/>
<path d="M31.9,54.3h8.3c0.6,0,1-0.4,1-1V45c0-0.6-0.4-1-1-1h-8.3c-0.6,0-1,0.4-1,1v8.3C30.9,53.8,31.3,54.3,31.9,54.3z M32.9,46h6.3
	v6.3h-6.3V46z"/>
<path d="M25.8,68c0.6,0,1-0.4,1-1v-8.3c0-0.6-0.4-1-1-1h-8.3c-0.6,0-1,0.4-1,1V67c0,0.6,0.4,1,1,1H25.8z M18.5,59.7h6.3V66h-6.3
	V59.7z"/>
<path d="M31.9,68h8.3c0.6,0,1-0.4,1-1v-8.3c0-0.6-0.4-1-1-1h-8.3c-0.6,0-1,0.4-1,1V67C30.9,67.5,31.3,68,31.9,68z M32.9,59.7h6.3V66
	h-6.3V59.7z"/>
<path d="M11,90h35.6c0.6,0,1-0.4,1-1V26.7c0-0.3-0.1-0.6-0.3-0.8L29.5,10.2c-0.4-0.3-0.9-0.3-1.3,0L10.3,25.9
	c-0.2,0.2-0.3,0.5-0.3,0.8V89C10,89.6,10.4,90,11,90z M32,88h-6.3V73.3H32V88z M12,27.1l16.8-14.8l16.8,14.8V88H34V72.3
	c0-0.6-0.4-1-1-1h-8.3c-0.6,0-1,0.4-1,1V88H12V27.1z"/>
<path d="M71.8,10.2c-0.4-0.3-0.9-0.3-1.3,0L52.7,25.9c-0.2,0.2-0.3,0.5-0.3,0.8V89c0,0.6,0.4,1,1,1H89c0.6,0,1-0.4,1-1V26.7
	c0-0.3-0.1-0.6-0.3-0.8L71.8,10.2z M74.3,88H68V76.5c0-1.7,1.4-3.1,3.1-3.1s3.1,1.4,3.1,3.1V88z M88,88H76.3V76.5
	c0-2.8-2.3-5.1-5.1-5.1c-2.8,0-5.1,2.3-5.1,5.1V88H54.4V27.1l16.8-14.8L88,27.1V88z"/>
<path d="M64,30.3c-2.8,0-5.1,2.3-5.1,5.1v4.1c0,0.6,0.4,1,1,1h8.3c0.6,0,1-0.4,1-1v-4.1C69.1,32.6,66.8,30.3,64,30.3z M67.1,38.6
	h-6.3v-3.1c0-1.7,1.4-3.1,3.1-3.1s3.1,1.4,3.1,3.1V38.6z"/>
<path d="M74.2,40.6h8.3c0.6,0,1-0.4,1-1v-4.1c0-2.8-2.3-5.1-5.1-5.1c-2.8,0-5.1,2.3-5.1,5.1v4.1C73.2,40.2,73.7,40.6,74.2,40.6z
	 M75.2,35.5c0-1.7,1.4-3.1,3.1-3.1s3.1,1.4,3.1,3.1v3.1h-6.3V35.5z"/>
<path d="M64,44c-2.8,0-5.1,2.3-5.1,5.1v4.1c0,0.6,0.4,1,1,1h8.3c0.6,0,1-0.4,1-1v-4.1C69.1,46.3,66.8,44,64,44z M67.1,52.3h-6.3
	v-3.1c0-1.7,1.4-3.1,3.1-3.1s3.1,1.4,3.1,3.1V52.3z"/>
<path d="M74.2,54.3h8.3c0.6,0,1-0.4,1-1v-4.1c0-2.8-2.3-5.1-5.1-5.1c-2.8,0-5.1,2.3-5.1,5.1v4.1C73.2,53.8,73.7,54.3,74.2,54.3z
	 M75.2,49.1c0-1.7,1.4-3.1,3.1-3.1s3.1,1.4,3.1,3.1v3.1h-6.3V49.1z"/>
<path d="M64,57.7c-2.8,0-5.1,2.3-5.1,5.1V67c0,0.6,0.4,1,1,1h8.3c0.6,0,1-0.4,1-1v-4.1C69.1,60,66.8,57.7,64,57.7z M67.1,66h-6.3
	v-3.1c0-1.7,1.4-3.1,3.1-3.1s3.1,1.4,3.1,3.1V66z"/>
<path d="M74.2,68h8.3c0.6,0,1-0.4,1-1v-4.1c0-2.8-2.3-5.1-5.1-5.1c-2.8,0-5.1,2.3-5.1,5.1V67C73.2,67.5,73.7,68,74.2,68z M75.2,62.8
	c0-1.7,1.4-3.1,3.1-3.1s3.1,1.4,3.1,3.1V66h-6.3V62.8z"/>
</svg>
