<?xml version="1.0" encoding="utf-8"?>
<!-- Generator: Adobe Illustrator 23.0.2, SVG Export Plug-In . SVG Version: 6.00 Build 0)  -->
<svg version="1.1" id="Layer_1" xmlns="http://www.w3.org/2000/svg" xmlns:xlink="http://www.w3.org/1999/xlink" x="0px" y="0px"
	 viewBox="0 0 100 125" style="enable-background:new 0 0 100 125;" xml:space="preserve">
<path d="M11.8,40.3c-0.4,0.4-0.4,1,0,1.4c0.2,0.2,0.5,0.3,0.7,0.3c0.3,0,0.5-0.1,0.7-0.3l2.6-2.6v14.8h-1.5c-0.6,0-1,0.4-1,1
	s0.4,1,1,1h27h0.1h0.1h35.9h0.1h0.1h8.7c0.6,0,1-0.4,1-1s-0.4-1-1-1h-7.8v-9l4.4,4.5c0.2,0.2,0.5,0.3,0.7,0.3c0.3,0,0.5-0.1,0.7-0.3
	c0.4-0.4,0.4-1,0-1.4l-5.9-5.9v-2.5l4.4,4.5c0.2,0.2,0.5,0.3,0.7,0.3c0.3,0,0.5-0.1,0.7-0.3c0.4-0.4,0.4-1,0-1.4l-5.9-5.9v-2.5
	l4.4,4.5c0.2,0.2,0.5,0.3,0.7,0.3c0.3,0,0.5-0.1,0.7-0.3c0.4-0.4,0.4-1,0-1.4L78.4,31l0,0c-0.2-0.2-0.4-0.3-0.7-0.3S77.2,30.8,77,31
	l0,0l-6.1,6.2c-0.4,0.4-0.4,1,0,1.4s1,0.4,1.4,0l4.4-4.5v2.5l-5.9,5.9c-0.4,0.4-0.4,1,0,1.4s1,0.4,1.4,0l4.4-4.5v2.5l-5.9,5.9
	c-0.4,0.4-0.4,1,0,1.4s1,0.4,1.4,0l4.4-4.5v9h-5l-5.3-8.6c0-0.1,0-0.1,0-0.2V30l2.6,2.6c0.4,0.4,1,0.4,1.4,0s0.4-1,0-1.4l-4-4v-1.9
	l2.6,2.6c0.4,0.4,1,0.4,1.4,0s0.4-1,0-1.4l-4-4v-1.9l2.6,2.6c0.4,0.4,1,0.4,1.4,0s0.4-1,0-1.4L66,17.4l0,0c-0.2-0.2-0.4-0.3-0.7-0.3
	s-0.5,0.1-0.7,0.3l0,0l-4.3,4.3c-0.4,0.4-0.4,1,0,1.4c0.2,0.2,0.5,0.3,0.7,0.3c0.3,0,0.5-0.1,0.7-0.3l2.6-2.6v1.9l-4,4
	c-0.4,0.4-0.4,1,0,1.4c0.2,0.2,0.5,0.3,0.7,0.3c0.3,0,0.5-0.1,0.7-0.3l2.6-2.6v1.9l-4,4c-0.4,0.4-0.4,1,0,1.4
	c0.2,0.2,0.5,0.3,0.7,0.3c0.3,0,0.5-0.1,0.7-0.3l2.6-2.6V42L44.7,10.6c-0.4-0.6-1.3-0.6-1.7,0L17.8,51.2V39.1l2.6,2.6
	c0.4,0.4,1,0.4,1.4,0s0.4-1,0-1.4l-4-4v-1.9l2.6,2.6c0.4,0.4,1,0.4,1.4,0s0.4-1,0-1.4l-4-4v-1.9l2.6,2.6c0.4,0.4,1,0.4,1.4,0
	c0.4-0.4,0.4-1,0-1.4l-4.3-4.3l0,0c-0.2-0.2-0.4-0.3-0.7-0.3s-0.5,0.1-0.7,0.3l0,0l-4.3,4.3c-0.4,0.4-0.4,1,0,1.4
	c0.2,0.2,0.5,0.3,0.7,0.3c0.3,0,0.5-0.1,0.7-0.3l2.6-2.6v1.9l-4,4c-0.4,0.4-0.4,1,0,1.4c0.2,0.2,0.5,0.3,0.7,0.3
	c0.3,0,0.5-0.1,0.7-0.3l2.6-2.6v1.9L11.8,40.3z M42.4,53.8v-9l4.4,4.5c0.2,0.2,0.5,0.3,0.7,0.3c0.3,0,0.5-0.1,0.7-0.3
	c0.4-0.4,0.4-1,0-1.4L42.3,42v-2.5l4.4,4.5c0.2,0.2,0.5,0.3,0.7,0.3c0.3,0,0.5-0.1,0.7-0.3c0.4-0.4,0.4-1,0-1.4l-5.9-5.9v-2.5
	l4.4,4.5c0.2,0.2,0.5,0.3,0.7,0.3c0.3,0,0.5-0.1,0.7-0.3c0.4-0.4,0.4-1,0-1.4L42.1,31l0,0c-0.2-0.2-0.4-0.3-0.7-0.3
	s-0.5,0.1-0.7,0.3l0,0l-6.1,6.2c-0.4,0.4-0.4,1,0,1.4s1,0.4,1.4,0l4.4-4.5v2.5l-5.9,5.9c-0.4,0.4-0.4,1,0,1.4s1,0.4,1.4,0l4.4-4.5
	v2.5l-5.9,5.9c-0.4,0.4-0.4,1,0,1.4s1,0.4,1.4,0l4.4-4.5v9H18.5l17.6-28.4l1.9,2.4c0.4,0.5,1.2,0.5,1.6,0l1.7-2.2l1.7,2.2
	c0.2,0.2,0.5,0.4,0.8,0.4s0.6-0.1,0.8-0.4l1.7-2.2l1.7,2.2c0.2,0.2,0.5,0.4,0.8,0.4s0.6-0.1,0.8-0.4l1.9-2.4l17.6,28.4L42.4,53.8
	L42.4,53.8z M43.9,13l6.6,10.6l-1.5,2l-1.7-2.2C47,23.1,46.7,23,46.4,23l0,0c-0.3,0-0.6,0.1-0.8,0.4l-1.7,2.2l-1.7-2.2
	c-0.4-0.5-1.2-0.5-1.6,0l-1.7,2.2l-1.5-2L43.9,13z"/>
<path d="M86.5,62.1c-0.6,0-1,0.4-1,1c0,2.3-1.9,4.2-4.2,4.2s-4.2-1.9-4.2-4.2c0-0.6-0.4-1-1-1s-1,0.4-1,1c0,2.3-1.9,4.2-4.2,4.2
	s-4.2-1.9-4.2-4.2c0-0.6-0.4-1-1-1s-1,0.4-1,1c0,2.3-1.9,4.2-4.2,4.2s-4.2-1.9-4.2-4.2c0-0.6-0.4-1-1-1s-1,0.4-1,1
	c0,2.3-1.9,4.2-4.2,4.2s-4.2-1.9-4.2-4.2c0-0.6-0.4-1-1-1s-1,0.4-1,1c0,2.3-1.9,4.2-4.2,4.2s-4.2-1.9-4.2-4.2c0-0.6-0.4-1-1-1
	s-1,0.4-1,1c0,2.3-1.9,4.2-4.2,4.2s-4.2-1.9-4.2-4.2c0-0.6-0.4-1-1-1s-1,0.4-1,1c0,2.3-1.9,4.2-4.2,4.2s-4.2-1.9-4.2-4.2
	c0-0.6-0.4-1-1-1s-1,0.4-1,1c0,3.4,2.8,6.2,6.2,6.2c2.2,0,4.1-1.1,5.2-2.8c1.1,1.7,3,2.8,5.2,2.8s4.1-1.1,5.2-2.8
	c1.1,1.7,3,2.8,5.2,2.8s4.1-1.1,5.2-2.8c1.1,1.7,3,2.8,5.2,2.8s4.1-1.1,5.2-2.8c1.1,1.7,3,2.8,5.2,2.8s4.1-1.1,5.2-2.8
	c1.1,1.7,3,2.8,5.2,2.8s4.1-1.1,5.2-2.8c1.1,1.7,3,2.8,5.2,2.8c3.4,0,6.2-2.8,6.2-6.2C87.5,62.5,87,62.1,86.5,62.1z"/>
<path d="M86.5,71.8c-0.6,0-1,0.4-1,1c0,2.3-1.9,4.2-4.2,4.2s-4.2-1.9-4.2-4.2c0-0.6-0.4-1-1-1s-1,0.4-1,1c0,2.3-1.9,4.2-4.2,4.2
	s-4.2-1.9-4.2-4.2c0-0.6-0.4-1-1-1s-1,0.4-1,1c0,2.3-1.9,4.2-4.2,4.2s-4.2-1.9-4.2-4.2c0-0.6-0.4-1-1-1s-1,0.4-1,1
	c0,2.3-1.9,4.2-4.2,4.2s-4.2-1.9-4.2-4.2c0-0.6-0.4-1-1-1s-1,0.4-1,1c0,2.3-1.9,4.2-4.2,4.2s-4.2-1.9-4.2-4.2c0-0.6-0.4-1-1-1
	s-1,0.4-1,1c0,2.3-1.9,4.2-4.2,4.2s-4.2-1.9-4.2-4.2c0-0.6-0.4-1-1-1s-1,0.4-1,1c0,2.3-1.9,4.2-4.2,4.2s-4.2-1.9-4.2-4.2
	c0-0.6-0.4-1-1-1s-1,0.4-1,1c0,3.4,2.8,6.2,6.2,6.2c2.2,0,4.1-1.1,5.2-2.8c1.1,1.7,3,2.8,5.2,2.8s4.1-1.1,5.2-2.8
	c1.1,1.7,3,2.8,5.2,2.8s4.1-1.1,5.2-2.8c1.1,1.7,3,2.8,5.2,2.8s4.1-1.1,5.2-2.8c1.1,1.7,3,2.8,5.2,2.8s4.1-1.1,5.2-2.8
	c1.1,1.7,3,2.8,5.2,2.8s4.1-1.1,5.2-2.8c1.1,1.7,3,2.8,5.2,2.8c3.4,0,6.2-2.8,6.2-6.2C87.5,72.2,87,71.8,86.5,71.8z"/>
<path d="M85.5,82.5c0,2.3-1.9,4.2-4.2,4.2s-4.2-1.9-4.2-4.2c0-0.6-0.4-1-1-1s-1,0.4-1,1c0,2.3-1.9,4.2-4.2,4.2s-4.2-1.9-4.2-4.2
	c0-0.6-0.4-1-1-1s-1,0.4-1,1c0,2.3-1.9,4.2-4.2,4.2s-4.2-1.9-4.2-4.2c0-0.6-0.4-1-1-1s-1,0.4-1,1c0,2.3-1.9,4.2-4.2,4.2
	s-4.2-1.9-4.2-4.2c0-0.6-0.4-1-1-1s-1,0.4-1,1c0,2.3-1.9,4.2-4.2,4.2s-4.2-1.9-4.2-4.2c0-0.6-0.4-1-1-1s-1,0.4-1,1
	c0,2.3-1.9,4.2-4.2,4.2s-4.2-1.9-4.2-4.2c0-0.6-0.4-1-1-1s-1,0.4-1,1c0,2.3-1.9,4.2-4.2,4.2s-4.2-1.9-4.2-4.2c0-0.6-0.4-1-1-1
	s-1,0.4-1,1c0,3.4,2.8,6.2,6.2,6.2c2.2,0,4.1-1.1,5.2-2.8c1.1,1.7,3,2.8,5.2,2.8s4.1-1.1,5.2-2.8c1.1,1.7,3,2.8,5.2,2.8
	s4.1-1.1,5.2-2.8c1.1,1.7,3,2.8,5.2,2.8s4.1-1.1,5.2-2.8c1.1,1.7,3,2.8,5.2,2.8s4.1-1.1,5.2-2.8c1.1,1.7,3,2.8,5.2,2.8
	s4.1-1.1,5.2-2.8c1.1,1.7,3,2.8,5.2,2.8c3.4,0,6.2-2.8,6.2-6.2c0-0.6-0.4-1-1-1S85.5,81.9,85.5,82.5z"/>
</svg>
